<svg id="SvgjsSvg1001" width="200" height="200" xmlns="http://www.w3.org/2000/svg" version="1.1" xmlns:xlink="http://www.w3.org/1999/xlink" xmlns:svgjs="http://svgjs.com/svgjs"><defs id="SvgjsDefs1002"></defs><g id="SvgjsG1008" transform="matrix(1,0,0,1,0,0)"><svg xmlns="http://www.w3.org/2000/svg" enable-background="new 0 0 1000 1000" viewBox="0 0 1000 1000" width="200" height="200"><rect width="1000" height="1000" fill="#f3f0ee" fill-opacity="0.0" class="colore6f7d5 svgShape"></rect><g opacity=".17" fill="#000000" class="color000 svgShape"><polyline fill="none" stroke="#1b3242" stroke-linecap="round" stroke-linejoin="round" stroke-miterlimit="10" stroke-width="8" points="275.509 386.297 275.509 427.216 193.672 427.216"></polyline><polyline fill="none" stroke="#1b3242" stroke-linecap="round" stroke-linejoin="round" stroke-miterlimit="10" stroke-width="8" points="357.347 427.216 275.509 427.216 275.509 386.297"></polyline><rect width="81.838" height="40.919" x="234.591" y="427.216" fill="none" stroke="#5d000b" stroke-linecap="round" stroke-linejoin="round" stroke-miterlimit="10" stroke-width="8" class="colorStroke1b3242 svgStroke"></rect><polyline fill="none" stroke="#1b3242" stroke-linecap="round" stroke-linejoin="round" stroke-miterlimit="10" stroke-width="8" points="298.762 509.054 275.509 509.054 275.509 468.135 357.347 468.135"></polyline><polyline fill="none" stroke="#1b3242" stroke-linecap="round" stroke-linejoin="round" stroke-miterlimit="10" stroke-width="8" points="193.672 468.135 275.509 468.135 275.509 509.054 209.149 509.054"></polyline><polyline fill="none" stroke="#1b3242" stroke-linecap="round" stroke-linejoin="round" stroke-miterlimit="10" stroke-width="8" points="165.775 427.216 234.591 427.216 234.591 468.135 193.672 468.135"></polyline><polyline fill="none" stroke="#1b3242" stroke-linecap="round" stroke-linejoin="round" stroke-miterlimit="10" stroke-width="8" points="375.485 468.135 316.428 468.135 316.428 427.216 344.796 427.216"></polyline></g><g opacity=".17" fill="#000000" class="color000 svgShape"><rect width="30" height="23" x="650.084" y="725" fill="none" stroke="#5d000b" stroke-linecap="round" stroke-linejoin="round" stroke-miterlimit="10" stroke-width="10" class="colorStroke1b3242 svgStroke"></rect><rect width="30" height="23" x="763.417" y="725" fill="none" stroke="#5d000b" stroke-linecap="round" stroke-linejoin="round" stroke-miterlimit="10" stroke-width="10" class="colorStroke1b3242 svgStroke"></rect><rect width="521" height="194" x="461.25" y="367.5" fill="none" stroke="#5d000b" stroke-linecap="round" stroke-linejoin="round" stroke-miterlimit="10" stroke-width="10" transform="rotate(90 721.75 464.5)" class="colorStroke1b3242 svgStroke"></rect><rect width="158" height="474" x="642.75" y="222" fill="none" stroke="#5d000b" stroke-linecap="round" stroke-linejoin="round" stroke-miterlimit="10" stroke-width="10" class="colorStroke1b3242 svgStroke"></rect><rect width="28" height="111.5" x="772.75" y="263.347" fill="none" stroke="#5d000b" stroke-linecap="round" stroke-linejoin="round" stroke-miterlimit="10" stroke-width="10" class="colorStroke1b3242 svgStroke"></rect><rect width="26.542" height="111.5" x="703.041" y="467.979" fill="none" stroke="#5d000b" stroke-linecap="round" stroke-linejoin="round" stroke-miterlimit="10" stroke-width="10" transform="rotate(-90 716.312 523.73)" class="colorStroke1b3242 svgStroke"></rect><rect width="26.542" height="111.5" x="717.729" y="441.438" fill="none" stroke="#5d000b" stroke-linecap="round" stroke-linejoin="round" stroke-miterlimit="10" stroke-width="10" transform="rotate(-90 731 497.188)" class="colorStroke1b3242 svgStroke"></rect><rect width="22.125" height="111.5" x="705.938" y="417.313" fill="none" stroke="#5d000b" stroke-linecap="round" stroke-linejoin="round" stroke-miterlimit="10" stroke-width="10" transform="rotate(-90 717 473.062)" class="colorStroke1b3242 svgStroke"></rect><line x1="772.75" x2="800.75" y1="291" y2="291" fill="none" stroke="#5d000b" stroke-linecap="round" stroke-linejoin="round" stroke-miterlimit="10" stroke-width="10" class="colorStroke1b3242 svgStroke"></line><rect width="23.8" height="103.347" x="748.95" y="271.5" fill="none" stroke="#5d000b" stroke-linecap="round" stroke-linejoin="round" stroke-miterlimit="10" stroke-width="10" class="colorStroke1b3242 svgStroke"></rect><line x1="748.95" x2="772.75" y1="297.131" y2="297.131" fill="none" stroke="#5d000b" stroke-linecap="round" stroke-linejoin="round" stroke-miterlimit="10" stroke-width="10" class="colorStroke1b3242 svgStroke"></line><rect width="22.399" height="97.262" x="702.558" y="277.178" fill="none" stroke="#5d000b" stroke-linecap="round" stroke-linejoin="round" stroke-miterlimit="10" stroke-width="10" transform="rotate(30 713.717 325.732)" class="colorStroke1b3242 svgStroke"></rect><line x1="716.312" x2="735.71" y1="298.983" y2="310.182" fill="none" stroke="#5d000b" stroke-linecap="round" stroke-linejoin="round" stroke-miterlimit="10" stroke-width="10" class="colorStroke1b3242 svgStroke"></line><line x1="704.7" x2="704.7" y1="484.125" y2="510.458" fill="none" stroke="#5d000b" stroke-linecap="round" stroke-linejoin="round" stroke-miterlimit="10" stroke-width="10" class="colorStroke1b3242 svgStroke"></line><line x1="686.284" x2="686.284" y1="462" y2="483.917" fill="none" stroke="#5d000b" stroke-linecap="round" stroke-linejoin="round" stroke-miterlimit="10" stroke-width="10" class="colorStroke1b3242 svgStroke"></line><line x1="689.2" x2="689.2" y1="510.458" y2="537" fill="none" stroke="#5d000b" stroke-linecap="round" stroke-linejoin="round" stroke-miterlimit="10" stroke-width="10" class="colorStroke1b3242 svgStroke"></line><rect width="158" height="14.833" x="642.75" y="379.667" fill="none" stroke="#5d000b" stroke-linecap="round" stroke-linejoin="round" stroke-miterlimit="10" stroke-width="10" class="colorStroke1b3242 svgStroke"></rect><rect width="158" height="15" x="642.75" y="537" fill="none" stroke="#5d000b" stroke-linecap="round" stroke-linejoin="round" stroke-miterlimit="10" stroke-width="10" class="colorStroke1b3242 svgStroke"></rect><rect width="158" height="151.5" x="642.75" y="544.5" fill="none" stroke="#5d000b" stroke-linecap="round" stroke-linejoin="round" stroke-miterlimit="10" stroke-width="10" class="colorStroke1b3242 svgStroke"></rect><line x1="765.132" x2="765.132" y1="587.23" y2="653.27" fill="none" stroke="#5d000b" stroke-linecap="round" stroke-linejoin="round" stroke-miterlimit="10" stroke-width="11" class="colorStroke1b3242 svgStroke"></line></g><line x1="822.417" x2="829.75" y1="748" y2="748" fill="none" stroke="#380007" stroke-linecap="round" stroke-linejoin="round" stroke-miterlimit="10" stroke-width="10" class="colorStroke013711 svgStroke"></line><line x1="741.75" x2="786.75" y1="748" y2="748" fill="none" stroke="#380007" stroke-linecap="round" stroke-linejoin="round" stroke-miterlimit="10" stroke-width="10" class="colorStroke013711 svgStroke"></line><line x1="298.547" x2="722" y1="748" y2="748" fill="none" stroke="#380007" stroke-linecap="round" stroke-linejoin="round" stroke-miterlimit="10" stroke-width="10" class="colorStroke013711 svgStroke"></line><line x1="218.572" x2="275.509" y1="748" y2="748" fill="none" stroke="#380007" stroke-linecap="round" stroke-linejoin="round" stroke-miterlimit="10" stroke-width="10" class="colorStroke013711 svgStroke"></line><path fill="#870010" d="M551,261h-91.487c-24.301,0-44,19.699-44,44v37.918h26V305c0-9.941,8.059-18,18-18
		H551c9.941,0,18,8.059,18,18v37.918h26V305C595,280.699,575.301,261,551,261z" class="color0b7c3e svgShape"></path><rect width="26.667" height="13" x="415.667" y="308.667" fill="#980012" opacity=".5" class="color049448 svgShape"></rect><rect width="26.667" height="13" x="568.333" y="308.667" fill="#980012" opacity=".5" class="color049448 svgShape"></rect><path fill="#ff0321" d="M551,261h-91.487c-24.301,0-44,19.699-44,44v9.333
		c0-24.301,19.699-44,44-44H551c24.301,0,44,19.699,44,44V305C595,280.699,575.301,261,551,261z" opacity=".46" class="color70bf43 svgShape"></path><path fill="none" stroke="#380007" stroke-linecap="round" stroke-linejoin="round" stroke-miterlimit="10" stroke-width="10" d="
		M551,261h-91.487c-24.301,0-44,19.699-44,44v37.918h26V305c0-9.941,8.059-18,18-18H551c9.941,0,18,8.059,18,18v37.918h26V305
		C595,280.699,575.301,261,551,261z" class="colorStroke013711 svgStroke"></path><path fill="#870010" d="M369.747,700.937h-25.425c-19.994,0-36.671-15.462-37.973-35.413
		c-3.579-54.82,2.172-97.605,14.162-130.743c6.485-17.926,32.014-17.926,38.5,0C373.468,574.742,378.855,628.731,369.747,700.937z" class="color0b7c3e svgShape"></path><path fill="#870010" d="M361.01,534.78c-5.141-14.21-22.242-17.144-32.344-8.824l2.859,115.978
		c0.394,15.986-6.818,30.384-18.329,39.755c6.569,11.543,19.017,19.248,33.126,19.248h25.425
		C380.855,628.731,375.468,574.742,361.01,534.78z" opacity=".2" class="color0b7c3e svgShape"></path><path fill="none" stroke="#380007" stroke-linecap="round" stroke-linejoin="round" stroke-miterlimit="10" stroke-width="10" d="
		M369.747,700.937h-25.425c-19.994,0-36.671-15.462-37.973-35.413c-3.579-54.82,2.172-97.605,14.162-130.743
		c6.485-17.926,32.014-17.926,38.5,0C373.468,574.742,378.855,628.731,369.747,700.937z" class="colorStroke013711 svgStroke"></path><path fill="#870010" d="M640.766,693.989h25.425c19.994,0,36.671-15.462,37.973-35.413
		c3.579-54.82-2.172-97.605-14.162-130.743c-6.485-17.926-32.014-17.926-38.5,0C637.045,567.795,631.658,621.784,640.766,693.989z" class="color0b7c3e svgShape"></path><path fill="#870010" d="M678.987,633.912l2.833-114.925
		c-10.105-8.292-27.181-5.352-32.318,8.846c-14.458,39.962-19.844,93.951-10.737,166.156h25.425
		c14.406,0,27.089-8.029,33.541-19.979C685.977,664.65,678.588,650.091,678.987,633.912z" opacity=".2" class="color0b7c3e svgShape"></path><path fill="none" stroke="#380007" stroke-linecap="round" stroke-linejoin="round" stroke-miterlimit="10" stroke-width="10" d="
		M640.766,693.989h25.425c19.994,0,36.671-15.462,37.973-35.413c3.579-54.82-2.172-97.605-14.162-130.743
		c-6.485-17.926-32.014-17.926-38.5,0C637.045,567.795,631.658,621.784,640.766,693.989z" class="colorStroke013711 svgStroke"></path><path fill="#980012" d="M614.454,748H396.059c-24.001,0-43.983-18.312-46.209-42.209
		c-7.446-79.937-7.446-160.393,0-240.33c2.226-23.897,22.208-42.209,46.209-42.209h218.395c24.001,0,43.983,18.312,46.209,42.209
		c7.446,79.937,7.446,160.393,0,240.33C658.437,729.688,638.455,748,614.454,748z" class="color049448 svgShape"></path><path fill="#870010" d="M660.663,691.873c-2.226,23.897-22.208,42.209-46.209,42.209H396.059
		c-24.001,0-43.983-18.311-46.209-42.209c-3.508-37.656-5.342-75.428-5.544-113.206c-0.228,42.417,1.606,84.843,5.544,127.124
		C352.076,729.688,372.058,748,396.059,748h218.395c24.001,0,43.983-18.312,46.209-42.209c3.939-42.28,5.772-84.706,5.544-127.124
		C666.004,616.445,664.171,654.217,660.663,691.873z" opacity=".29" class="color0b7c3e svgShape"></path><ellipse cx="505.256" cy="651.213" fill="none" stroke="#980012" stroke-miterlimit="10" stroke-width="8" opacity=".5" rx="32.744" ry="20.121" class="colorStroke049448 svgStroke"></ellipse><path fill="#980012" d="M378.697,589.564c41.95,2.165,84.53,3.263,126.559,3.263
		c42.029,0,84.609-1.098,126.56-3.263c12.887-0.665,24.682-5.613,34.359-13.599c-0.351-35.877-2.18-71.743-5.511-107.504
		c-2.226-23.897-22.208-42.209-46.209-42.209H396.059c-24.001,0-43.983,18.312-46.209,42.209
		c-3.331,35.762-5.161,71.628-5.511,107.504C354.016,583.951,365.81,588.899,378.697,589.564z" opacity=".5" class="color049448 svgShape"></path><path fill="none" stroke="#380007" stroke-dasharray="4.005 8.011" stroke-linecap="round" stroke-linejoin="round" stroke-width="4" d="
			M396.059,734.082c-16.872,0-30.78-12.717-32.351-29.582c-7.348-78.879-7.348-158.869,0-237.748
			c1.571-16.865,15.479-29.582,32.351-29.582h218.395c16.872,0,30.78,12.718,32.351,29.582c7.347,78.879,7.347,158.869,0,237.748
			c-1.571,16.865-15.48,29.582-32.351,29.582H396.059z" class="colorStroke013711 svgStroke"></path><path fill="none" stroke="#380007" stroke-miterlimit="10" d="M614.454,748H396.059
		c-24.001,0-43.983-18.312-46.209-42.209c-7.446-79.937-7.446-160.393,0-240.33c2.226-23.897,22.208-42.209,46.209-42.209h218.395
		c24.001,0,43.983,18.312,46.209,42.209c7.446,79.937,7.446,160.393,0,240.33C658.437,729.688,638.455,748,614.454,748z" class="colorStroke013711 svgStroke"></path><path fill="none" stroke="#380007" stroke-linecap="round" stroke-linejoin="round" stroke-miterlimit="10" stroke-width="10" d="
		M614.454,748H396.059c-24.001,0-43.983-18.312-46.209-42.209c-7.446-79.937-7.446-160.393,0-240.33
		c2.226-23.897,22.208-42.209,46.209-42.209h218.395c24.001,0,43.983,18.312,46.209,42.209c7.446,79.937,7.446,160.393,0,240.33
		C658.437,729.688,638.455,748,614.454,748z" class="colorStroke013711 svgStroke"></path><path fill="#ff0321" d="M631.3,576.578c-83.95,4.332-168.137,4.332-252.088,0
		c-29.032-1.498-51.108-28.852-50.832-62.313c0.38-45.95,2.088-90.892,5.096-135.086c2.118-31.124,24.927-55.931,52.492-57.274
		c79.521-3.873,159.054-3.873,238.575,0c27.566,1.343,50.374,26.15,52.492,57.274c3.008,44.194,4.716,89.136,5.096,135.086
		C682.409,547.727,660.332,575.08,631.3,576.578z" class="color70bf43 svgShape"></path><path fill="#380007" d="M631.3,567.578c-83.95,4.332-168.137,4.332-252.088,0
		c-27.934-1.441-49.418-26.823-50.758-58.548c-0.023,2.08-0.057,4.151-0.074,6.235c-0.276,33.462,21.8,60.815,50.832,62.313
		c83.95,4.332,168.137,4.332,252.088,0c29.032-1.498,51.108-28.852,50.832-62.313c-0.017-2.084-0.052-4.155-0.074-6.235
		C680.719,540.755,659.234,566.137,631.3,567.578z" opacity=".41" class="color013711 svgShape"></path><path fill="#ff0321" d="M335.015,522.562c0.365-45.494,2.01-89.991,4.905-133.747
		c2.039-30.815,23.992-55.377,50.523-56.706c76.538-3.835,153.088-3.835,229.626,0c26.532,1.329,48.485,25.891,50.523,56.706
		c2.895,43.756,4.54,88.253,4.905,133.747c0.094,11.724-2.516,22.682-7.154,32.025c8.724-11.125,13.923-25.991,13.789-42.322
		c-0.38-45.95-2.088-90.892-5.096-135.086c-2.118-31.124-24.927-55.931-52.492-57.274c-79.521-3.873-159.054-3.873-238.575,0
		c-27.566,1.343-50.374,26.15-52.492,57.274c-3.008,44.194-4.717,89.136-5.096,135.086c-0.135,16.331,5.065,31.196,13.789,42.322
		C337.531,545.244,334.921,534.286,335.015,522.562z" opacity=".65" class="color70bf43 svgShape"></path><path fill="none" stroke="#380007" stroke-linecap="round" stroke-linejoin="round" stroke-miterlimit="10" stroke-width="10" d="
		M537.871,455.488c-21.873,0.251-43.749,0.25-65.622-0.005c-26.79-0.434-48.503-21.013-48.503-45.329c0-6.425,0-12.85,0-19.275
		c0-7.543,6.585-13.693,14.832-13.887c44.445-1.045,88.912-1.045,133.357,0c8.247,0.194,14.832,6.344,14.832,13.887v18.916
		C586.767,434.204,564.767,455.054,537.871,455.488z" opacity=".41" class="colorStroke013711 svgStroke"></path><path fill="none" stroke="#380007" stroke-linecap="round" stroke-linejoin="round" stroke-miterlimit="10" stroke-width="10" d="
		M631.3,576.578c-83.95,4.332-168.137,4.332-252.088,0c-29.032-1.498-51.108-28.852-50.832-62.313
		c0.38-45.95,2.088-90.892,5.096-135.086c2.118-31.124,24.927-55.931,52.492-57.274c79.521-3.873,159.054-3.873,238.575,0
		c27.566,1.343,50.374,26.15,52.492,57.274c3.008,44.194,4.716,89.136,5.096,135.086C682.409,547.727,660.332,575.08,631.3,576.578z
		" class="colorStroke013711 svgStroke"></path><path fill="none" stroke="#380007" stroke-dasharray="4.003 8.007" stroke-linecap="round" stroke-linejoin="round" stroke-width="4" d="
			M505.256,565.909c-41.619,0-83.785-1.087-125.326-3.231c-21.317-1.099-37.847-22.314-37.632-48.299
			c0.373-45.198,2.077-90.368,5.065-134.255c1.624-23.858,18.879-43.324,39.284-44.318c39.35-1.916,79.256-2.888,118.61-2.888
			c39.354,0,79.26,0.972,118.61,2.888c20.404,0.994,37.66,20.461,39.284,44.318c2.988,43.899,4.691,89.069,5.064,134.255
			c0.215,25.985-16.314,47.2-37.632,48.299C589.042,564.822,546.875,565.909,505.256,565.909z" class="colorStroke013711 svgStroke"></path><path fill="#c10017" d="M537.871,447.488c-21.873,0.251-43.749,0.25-65.622-0.005
		c-26.79-0.434-48.503-21.013-48.503-45.329c0-6.425,0-12.85,0-19.275c0-7.543,6.585-13.693,14.832-13.887
		c44.445-1.045,88.912-1.045,133.357,0c8.247,0.194,14.832,6.344,14.832,13.887v18.916
		C586.767,426.204,564.767,447.054,537.871,447.488z" class="color0bb68f svgShape"></path><path fill="#c10017" d="M537.871,430.425c-21.873,0.251-43.749,0.25-65.622-0.005
		c-26.79-0.434-48.502-21.013-48.503-45.329c0-0.738,0-1.476,0-2.214c0,0,0,0.001,0,0.002c0,6.425,0,12.85,0,19.275
		c0.001,24.316,21.713,44.895,48.503,45.329c21.873,0.254,43.749,0.256,65.622,0.005c26.896-0.434,48.896-21.284,48.896-45.693
		v-17.063C586.767,409.141,564.767,429.992,537.871,430.425z" opacity=".43" class="color0bb68f svgShape"></path><path fill="#c10017" d="M571.935,368.992c-44.445-1.045-88.912-1.045-133.357,0
		c-8.247,0.194-14.832,6.344-14.832,13.887c0,2.666,0,5.333,0,7.999c0-7.542,6.585-13.692,14.832-13.886
		c44.445-1.045,88.912-1.045,133.357,0c8.247,0.194,14.832,6.344,14.832,13.887v-8C586.767,375.337,580.182,369.186,571.935,368.992
		z" opacity=".7" class="color0bb68f svgShape"></path><path fill="none" stroke="#380007" stroke-linecap="round" stroke-linejoin="round" stroke-miterlimit="10" stroke-width="10" d="
		M537.871,447.488c-21.873,0.251-43.749,0.25-65.622-0.005c-26.79-0.434-48.503-21.013-48.503-45.329c0-6.425,0-12.85,0-19.275
		c0-7.543,6.585-13.693,14.832-13.887c44.445-1.045,88.912-1.045,133.357,0c8.247,0.194,14.832,6.344,14.832,13.887v18.916
		C586.767,426.204,564.767,447.054,537.871,447.488z" class="colorStroke013711 svgStroke"></path><path fill="none" stroke="#380007" stroke-linecap="round" stroke-linejoin="round" stroke-miterlimit="10" stroke-width="10" d="
		M537.871,447.488c-21.873,0.251-43.749,0.25-65.622-0.005c-26.79-0.434-48.503-21.013-48.503-45.329c0-6.425,0-12.85,0-19.275
		c0-7.543,6.585-13.693,14.832-13.887c44.445-1.045,88.912-1.045,133.357,0c8.247,0.194,14.832,6.344,14.832,13.887v18.916
		C586.767,426.204,564.767,447.054,537.871,447.488z" class="colorStroke013711 svgStroke"></path><path fill="#380007" d="M442.199,568.607h-47.059c-1.842,0-3.534-1.013-4.405-2.636l-14.575-27.157
				c-9.81-18.063-5.989-39.265,9.745-53.993l20.989-19.624c6.37-5.963,17.156-5.944,23.553,0.043l20.993,19.731
				c15.695,14.689,19.516,35.831,9.728,53.854l-14.563,27.145C445.734,567.595,444.041,568.607,442.199,568.607z M398.132,558.607
				h41.076l13.16-24.531c7.56-13.92,4.506-30.322-7.769-41.81l-20.993-19.731c-2.499-2.339-7.396-2.358-9.88-0.034l-20.989,19.624
				c-12.305,11.517-15.358,27.98-7.778,41.94L398.132,558.607z" opacity=".41" class="color013711 svgShape"></path><path fill="#380007" d="M418.218,693.702c-10.431,0-18.917-8.486-18.917-18.918V513.57
				c0-2.762,2.238-5,5-5h27.835c2.762,0,5,2.238,5,5v161.214C437.136,685.216,428.649,693.702,418.218,693.702z M409.301,518.57
				v156.214c0,4.917,4,8.918,8.917,8.918s8.918-4.001,8.918-8.918V518.57H409.301z" opacity=".41" class="color013711 svgShape"></path><path fill="#980012" d="M397.257,556.608h42.825l13.264-25.912c7.873-15.194,4.756-33.131-7.969-45.613
			l-19.099-18.812c-4.041-3.964-11.176-4.003-15.217-0.039l-19.099,18.714c-12.725,12.482-15.842,30.566-7.969,45.76
			L397.257,556.608z" class="color049448 svgShape"></path><path fill="none" stroke="#380007" stroke-linecap="round" stroke-linejoin="round" stroke-miterlimit="10" stroke-width="10" d="
			M395.141,556.608h47.058l14.575-27.168c8.651-15.93,5.226-34.737-8.757-47.824l-20.987-19.724
			c-4.44-4.156-12.281-4.197-16.721-0.041l-20.987,19.622c-13.983,13.087-17.408,32.048-8.757,47.978L395.141,556.608z" class="colorStroke013711 svgStroke"></path><polyline fill="none" stroke="#013711" stroke-linecap="round" stroke-linejoin="round" stroke-width="3" points="402.624 546.607 401.124 546.607 400.414 545.286"></polyline><path fill="none" stroke="#380007" stroke-dasharray="2.989 6.974" stroke-linecap="round" stroke-linejoin="round" stroke-width="3" d="
					M397.116,539.141l-7.739-14.42c-6.483-11.939-3.813-26.033,6.779-35.947l20.982-19.618c0.169-0.158,0.716-0.401,1.486-0.401
					c0.81,0,1.385,0.263,1.573,0.439l20.971,19.709c10.737,10.05,13.344,23.749,6.817,35.765l-9.413,17.546" class="colorStroke013711 svgStroke"></path><polyline fill="none" stroke="#013711" stroke-linecap="round" stroke-linejoin="round" stroke-width="3" points="436.924 545.286 436.215 546.607 434.715 546.607"></polyline><line x1="428.644" x2="405.659" y1="546.607" y2="546.607" fill="none" stroke="#380007" stroke-dasharray="2.602 6.071" stroke-linecap="round" stroke-linejoin="round" stroke-width="3" class="colorStroke013711 svgStroke"></line><path fill="#ff1632" d="M418.334,682.482L418.334,682.482c-7.687,0-13.918-6.231-13.918-13.918V507.351
			h27.836v161.214C432.252,676.251,426.021,682.482,418.334,682.482z" class="colorf9941c svgShape"></path><path fill="#ff1632" d="M418.334,673.192c-7.687,0-13.918-6.231-13.918-13.918v9.29
			c0,7.687,6.231,13.918,13.918,13.918c7.687,0,13.918-6.231,13.918-13.918v-9.29C432.252,666.961,426.021,673.192,418.334,673.192z
			" opacity=".37" class="colorf9941c svgShape"></path><rect width="27.836" height="22.533" x="404.416" y="590.471" fill="#ff1632" opacity=".37" class="colorf9941c svgShape"></rect><path fill="none" stroke="#380007" stroke-linecap="round" stroke-linejoin="round" stroke-miterlimit="10" stroke-width="8" d="
			M418.334,682.482L418.334,682.482c-7.687,0-13.918-6.231-13.918-13.918V507.351h27.836v161.214
			C432.252,676.251,426.021,682.482,418.334,682.482z" class="colorStroke013711 svgStroke"></path><path fill="#ffffff" d="M404.416,610.961v-20.49h27.836v20.49h11.598v-26.474
			c0-3.101-2.514-5.614-5.614-5.614h-39.803c-3.101,0-5.614,2.514-5.614,5.614v26.474H404.416z" class="colorfff svgShape"></path><path fill="none" stroke="#380007" stroke-linecap="round" stroke-linejoin="round" stroke-miterlimit="10" stroke-width="8" d="
			M404.416,610.961v-20.49h27.836v20.49h11.598v-22.84c0-5.108-4.141-9.248-9.248-9.248h-32.535c-5.108,0-9.248,4.141-9.248,9.248
			v22.84H404.416z" class="colorStroke013711 svgStroke"></path><line x1="422.93" x2="413.738" y1="518.408" y2="527.6" fill="none" stroke="#380007" stroke-linecap="round" stroke-linejoin="round" stroke-miterlimit="10" stroke-width="4" class="colorStroke013711 svgStroke"></line><line x1="422.93" x2="413.738" y1="527.6" y2="518.408" fill="none" stroke="#380007" stroke-linecap="round" stroke-linejoin="round" stroke-miterlimit="10" stroke-width="4" class="colorStroke013711 svgStroke"></line><circle cx="418.218" cy="610.379" r="4.625" fill="#ffffff" class="colorfff svgShape"></circle><circle cx="418.218" cy="608.379" r="4.625" fill="none" stroke="#380007" stroke-linecap="round" stroke-linejoin="round" stroke-miterlimit="10" stroke-width="4" class="colorStroke013711 svgStroke"></circle><circle cx="418.218" cy="626.376" r="4.625" fill="#ffffff" class="colorfff svgShape"></circle><circle cx="418.218" cy="626.376" r="4.625" fill="none" stroke="#380007" stroke-linecap="round" stroke-linejoin="round" stroke-miterlimit="10" stroke-width="4" class="colorStroke013711 svgStroke"></circle><circle cx="418.218" cy="646.713" r="4.625" fill="#ffffff" class="colorfff svgShape"></circle><circle cx="418.218" cy="646.713" r="4.625" fill="none" stroke="#380007" stroke-linecap="round" stroke-linejoin="round" stroke-miterlimit="10" stroke-width="4" class="colorStroke013711 svgStroke"></circle><path fill="#ffffff" d="M418.218,611.004L418.218,611.004c-1.864,0-3.375-1.511-3.375-3.375v-29.381
			c0-1.864,1.511-3.375,3.375-3.375l0,0c1.864,0,3.375,1.511,3.375,3.375v29.381C421.593,609.493,420.082,611.004,418.218,611.004z" class="colorfff svgShape"></path><path fill="none" stroke="#380007" stroke-linecap="round" stroke-linejoin="round" stroke-miterlimit="10" stroke-width="4" d="
			M418.218,611.004L418.218,611.004c-1.864,0-3.375-1.511-3.375-3.375v-29.381c0-1.864,1.511-3.375,3.375-3.375l0,0
			c1.864,0,3.375,1.511,3.375,3.375v29.381C421.593,609.493,420.082,611.004,418.218,611.004z" class="colorStroke013711 svgStroke"></path><g fill="#000000" class="color000 svgShape"><path fill="#380007" d="M615.372,569.607h-47.058c-1.842,0-3.534-1.013-4.405-2.636l-14.576-27.157
				c-9.81-18.064-5.988-39.267,9.746-53.993l20.988-19.624c6.371-5.962,17.157-5.944,23.554,0.043l20.993,19.731
				c15.694,14.688,19.516,35.831,9.727,53.854l-14.563,27.145C618.907,568.595,617.214,569.607,615.372,569.607z M571.306,559.607
				h41.075l13.16-24.531c7.561-13.92,4.507-30.322-7.768-41.81l-20.993-19.731c-2.499-2.338-7.398-2.358-9.881-0.034l-20.988,19.624
				c-12.306,11.516-15.359,27.98-7.779,41.94L571.306,559.607z" opacity=".41" class="color013711 svgShape"></path><path fill="#980012" d="M570.431,556.608h42.825l13.264-25.912c7.873-15.194,4.756-33.131-7.969-45.613
			l-19.099-18.812c-4.041-3.964-11.176-4.003-15.217-0.039l-19.099,18.714c-12.725,12.482-15.842,30.566-7.969,45.76
			L570.431,556.608z" class="color049448 svgShape"></path><path fill="none" stroke="#380007" stroke-linecap="round" stroke-linejoin="round" stroke-miterlimit="10" stroke-width="10" d="
			M568.314,556.608h47.058l14.576-27.168c8.651-15.93,5.226-34.737-8.757-47.824l-20.987-19.724
			c-4.44-4.156-12.281-4.197-16.721-0.041l-20.987,19.622c-13.983,13.087-17.408,32.048-8.757,47.978L568.314,556.608z" class="colorStroke013711 svgStroke"></path><polyline fill="none" stroke="#013711" stroke-linecap="round" stroke-linejoin="round" stroke-width="3" points="575.797 546.607 574.297 546.607 573.588 545.286"></polyline><path fill="none" stroke="#380007" stroke-dasharray="2.989 6.974" stroke-linecap="round" stroke-linejoin="round" stroke-width="3" d="
					M570.289,539.141l-7.74-14.42c-6.483-11.939-3.813-26.033,6.779-35.947l20.982-19.618c0.169-0.158,0.716-0.401,1.486-0.401
					c0.81,0,1.385,0.263,1.573,0.439l20.971,19.709c10.737,10.05,13.344,23.749,6.817,35.765l-9.413,17.546" class="colorStroke013711 svgStroke"></path><polyline fill="none" stroke="#013711" stroke-linecap="round" stroke-linejoin="round" stroke-width="3" points="610.098 545.286 609.389 546.607 607.889 546.607"></polyline><line x1="601.817" x2="578.833" y1="546.607" y2="546.607" fill="none" stroke="#380007" stroke-dasharray="2.602 6.071" stroke-linecap="round" stroke-linejoin="round" stroke-width="3" class="colorStroke013711 svgStroke"></line><path fill="#380007" d="M591.508,693.482c-10.432,0-18.918-8.486-18.918-18.918V513.351
				c0-2.762,2.238-5,5-5h27.836c2.762,0,5,2.238,5,5v161.214C610.426,684.996,601.939,693.482,591.508,693.482z M582.59,518.351
				v156.214c0,4.917,4.001,8.918,8.918,8.918s8.918-4.001,8.918-8.918V518.351H582.59z" opacity=".41" class="color013711 svgShape"></path><path fill="#ff1632" d="M591.508,682.482L591.508,682.482c-7.687,0-13.918-6.231-13.918-13.918V507.351
			h27.835v161.214C605.425,676.251,599.194,682.482,591.508,682.482z" class="colorf9941c svgShape"></path><path fill="#ff1632" d="M591.508,672.878c-7.687,0-13.918-6.231-13.918-13.918v10.604
			c0,7.687,6.231,13.918,13.918,13.918s13.918-6.231,13.918-13.918v-10.604C605.425,666.647,599.194,672.878,591.508,672.878z" opacity=".37" class="colorf9941c svgShape"></path><rect width="27.836" height="22.533" x="577.474" y="590.471" fill="#ff1632" opacity=".37" class="colorf9941c svgShape"></rect><path fill="none" stroke="#380007" stroke-linecap="round" stroke-linejoin="round" stroke-miterlimit="10" stroke-width="8" d="
			M591.508,682.482L591.508,682.482c-7.687,0-13.918-6.231-13.918-13.918V507.351h27.835v161.214
			C605.425,676.251,599.194,682.482,591.508,682.482z" class="colorStroke013711 svgStroke"></path><path fill="#ffffff" d="M577.59,610.961v-20.49h27.835v20.49h11.598v-26.474
			c0-3.101-2.514-5.614-5.614-5.614h-39.803c-3.101,0-5.614,2.514-5.614,5.614v26.474H577.59z" class="colorfff svgShape"></path><path fill="none" stroke="#380007" stroke-linecap="round" stroke-linejoin="round" stroke-miterlimit="10" stroke-width="8" d="
			M577.59,610.961v-20.49h27.835v20.49h11.598v-22.84c0-5.108-4.141-9.248-9.248-9.248H575.24c-5.108,0-9.248,4.141-9.248,9.248
			v22.84H577.59z" class="colorStroke013711 svgStroke"></path><line x1="596.104" x2="586.911" y1="518.408" y2="527.6" fill="none" stroke="#380007" stroke-linecap="round" stroke-linejoin="round" stroke-miterlimit="10" stroke-width="4" class="colorStroke013711 svgStroke"></line><line x1="596.104" x2="586.911" y1="527.6" y2="518.408" fill="none" stroke="#380007" stroke-linecap="round" stroke-linejoin="round" stroke-miterlimit="10" stroke-width="4" class="colorStroke013711 svgStroke"></line><circle cx="591.392" cy="610.379" r="4.625" fill="#ffffff" class="colorfff svgShape"></circle><circle cx="591.392" cy="608.379" r="4.625" fill="none" stroke="#380007" stroke-linecap="round" stroke-linejoin="round" stroke-miterlimit="10" stroke-width="4" class="colorStroke013711 svgStroke"></circle><circle cx="591.392" cy="626.376" r="4.625" fill="#ffffff" class="colorfff svgShape"></circle><circle cx="591.392" cy="626.376" r="4.625" fill="none" stroke="#380007" stroke-linecap="round" stroke-linejoin="round" stroke-miterlimit="10" stroke-width="4" class="colorStroke013711 svgStroke"></circle><circle cx="591.392" cy="646.713" r="4.625" fill="#ffffff" class="colorfff svgShape"></circle><circle cx="591.392" cy="646.713" r="4.625" fill="none" stroke="#380007" stroke-linecap="round" stroke-linejoin="round" stroke-miterlimit="10" stroke-width="4" class="colorStroke013711 svgStroke"></circle><path fill="#ffffff" d="M591.392,611.004L591.392,611.004c-1.864,0-3.375-1.511-3.375-3.375v-29.381
			c0-1.864,1.511-3.375,3.375-3.375h0c1.864,0,3.375,1.511,3.375,3.375v29.381C594.767,609.493,593.256,611.004,591.392,611.004z" class="colorfff svgShape"></path><path fill="none" stroke="#380007" stroke-linecap="round" stroke-linejoin="round" stroke-miterlimit="10" stroke-width="4" d="
			M591.392,611.004L591.392,611.004c-1.864,0-3.375-1.511-3.375-3.375v-29.381c0-1.864,1.511-3.375,3.375-3.375h0
			c1.864,0,3.375,1.511,3.375,3.375v29.381C594.767,609.493,593.256,611.004,591.392,611.004z" class="colorStroke013711 svgStroke"></path></g><path fill="#ffffff" d="M579.844,417.155L579.844,417.155c3.544,4.445,10.3,4.445,13.845,0l0,0
		c2.093-2.625,2.521-6.209,1.106-9.253l-8.028-17.263l-8.028,17.263C577.323,410.946,577.751,414.529,579.844,417.155z" class="colorfff svgShape"></path><path fill="none" stroke="#380007" stroke-linecap="round" stroke-linejoin="round" stroke-miterlimit="10" stroke-width="6" d="
		M579.844,417.155L579.844,417.155c3.544,4.445,10.3,4.445,13.845,0l0,0c2.093-2.625,2.521-6.209,1.106-9.253l-8.028-17.263
		l-8.028,17.263C577.323,410.946,577.751,414.529,579.844,417.155z" class="colorStroke013711 svgStroke"></path><line x1="423.746" x2="584.5" y1="396" y2="396" fill="none" stroke="#380007" stroke-dasharray="5 4" stroke-linejoin="round" stroke-miterlimit="10" stroke-width="9" class="colorStroke013711 svgStroke"></line><ellipse cx="505.256" cy="646.213" fill="#ff8392" rx="32.744" ry="20.121" class="colorfcca86 svgShape"></ellipse><path fill="#ff8392" d="M505.256,631.759c16.518,0,30.172,7.517,32.414,17.287
		c0.213-0.926,0.33-1.871,0.33-2.833c0-11.112-14.66-20.121-32.744-20.121s-32.744,9.008-32.744,20.121
		c0,0.962,0.117,1.907,0.33,2.833C475.084,639.276,488.739,631.759,505.256,631.759z" opacity=".6" class="colorfcca86 svgShape"></path><path fill="#ff8392" d="M505.256,657.333c-14.495,0-26.987-4.77-32.722-11.647
		c-0.007,0.176-0.022,0.35-0.022,0.527c0,11.112,14.66,20.12,32.744,20.12S538,657.325,538,646.213c0-0.177-0.014-0.351-0.022-0.527
		C532.243,652.563,519.752,657.333,505.256,657.333z" opacity=".77" class="colorfcca86 svgShape"></path><ellipse cx="505.256" cy="646.213" fill="none" stroke="#380007" stroke-linecap="round" stroke-linejoin="round" stroke-miterlimit="10" stroke-width="6" rx="32.744" ry="20.121" class="colorStroke013711 svgStroke"></ellipse><ellipse cx="505.256" cy="646.213" fill="none" stroke="#380007" stroke-linecap="round" stroke-linejoin="round" stroke-miterlimit="10" stroke-width="6" rx="32.744" ry="20.121" class="colorStroke013711 svgStroke"></ellipse><path fill="none" stroke="#380007" stroke-linecap="round" stroke-linejoin="round" stroke-miterlimit="10" stroke-width="3" d="M527.104 642.395c1.236 1.321 1.896 2.648 1.896 3.817 0 2.767-3.699 6.419-9.958 8.769M505.257 635.093c7.137 0 13.073 1.673 17.224 3.9" class="colorStroke013711 svgStroke"></path><g opacity=".17" fill="#000000" class="color000 svgShape"><circle cx="303.695" cy="244.922" r="63.745" fill="none" stroke="#5d000b" stroke-linecap="round" stroke-linejoin="round" stroke-miterlimit="10" stroke-width="10" class="colorStroke1b3242 svgStroke"></circle><line x1="303.695" x2="303.695" y1="187.684" y2="193.91" fill="none" stroke="#5d000b" stroke-linecap="round" stroke-linejoin="round" stroke-miterlimit="10" stroke-width="6" class="colorStroke1b3242 svgStroke"></line><line x1="303.695" x2="303.695" y1="295.934" y2="302.16" fill="none" stroke="#5d000b" stroke-linecap="round" stroke-linejoin="round" stroke-miterlimit="10" stroke-width="6" class="colorStroke1b3242 svgStroke"></line><line x1="360.933" x2="354.707" y1="244.922" y2="244.922" fill="none" stroke="#5d000b" stroke-linecap="round" stroke-linejoin="round" stroke-miterlimit="10" stroke-width="6" class="colorStroke1b3242 svgStroke"></line><line x1="252.683" x2="246.457" y1="244.922" y2="244.922" fill="none" stroke="#5d000b" stroke-linecap="round" stroke-linejoin="round" stroke-miterlimit="10" stroke-width="6" class="colorStroke1b3242 svgStroke"></line><circle cx="303.695" cy="244.922" r="5.148" fill="#5d000b" class="color1b3242 svgShape"></circle><line x1="303.695" x2="331.184" y1="244.922" y2="210.903" fill="none" stroke="#5d000b" stroke-linecap="round" stroke-linejoin="round" stroke-miterlimit="10" stroke-width="4" class="colorStroke1b3242 svgStroke"></line><line x1="286.351" x2="303.695" y1="227.912" y2="244.922" fill="none" stroke="#5d000b" stroke-linecap="round" stroke-linejoin="round" stroke-miterlimit="10" stroke-width="6" class="colorStroke1b3242 svgStroke"></line></g></svg></g></svg>