<?xml version="1.0" encoding="UTF-8" standalone="no"?>
<svg
   xmlns:dc="http://purl.org/dc/elements/1.1/"
   xmlns:cc="http://creativecommons.org/ns#"
   xmlns:rdf="http://www.w3.org/1999/02/22-rdf-syntax-ns#"
   xmlns:svg="http://www.w3.org/2000/svg"
   xmlns="http://www.w3.org/2000/svg"
   xmlns:sodipodi="http://sodipodi.sourceforge.net/DTD/sodipodi-0.dtd"
   xmlns:inkscape="http://www.inkscape.org/namespaces/inkscape"
   width="100"
   height="65"
   viewBox="0 0 26.458333 17.197916"
   version="1.1"
   id="svg8"
   inkscape:version="1.0.2-2 (e86c870879, 2021-01-15)"
   sodipodi:docname="UFPS logo.svg">
  <title
     id="title1484">UFPS logo</title>
  <defs
     id="defs2" />
  <sodipodi:namedview
     id="base"
     pagecolor="#ffffff"
     bordercolor="#666666"
     borderopacity="1.0"
     inkscape:pageopacity="0"
     inkscape:pageshadow="2"
     inkscape:zoom="2.8284271"
     inkscape:cx="107.20584"
     inkscape:cy="8.2109229"
     inkscape:document-units="px"
     inkscape:current-layer="layer1"
     inkscape:document-rotation="0"
     showgrid="false"
     units="px"
     inkscape:showpageshadow="false"
     inkscape:window-width="1366"
     inkscape:window-height="745"
     inkscape:window-x="-8"
     inkscape:window-y="-8"
     inkscape:window-maximized="1"
     objecttolerance="11.8"
     guidetolerance="10.6" />
  <metadata
     id="metadata5">
    <rdf:RDF>
      <cc:Work
         rdf:about="">
        <dc:format>image/svg+xml</dc:format>
        <dc:type
           rdf:resource="http://purl.org/dc/dcmitype/StillImage" />
        <dc:title>UFPS logo</dc:title>
        <cc:license
           rdf:resource="http://scripts.sil.org/OFL" />
        <dc:date>17 de marzo 2021</dc:date>
        <dc:creator>
          <cc:Agent>
            <dc:title>EEIM</dc:title>
          </cc:Agent>
        </dc:creator>
      </cc:Work>
      <cc:License
         rdf:about="http://scripts.sil.org/OFL">
        <cc:permits
           rdf:resource="http://scripts.sil.org/pub/OFL/Reproduction" />
        <cc:permits
           rdf:resource="http://scripts.sil.org/pub/OFL/Distribution" />
        <cc:permits
           rdf:resource="http://scripts.sil.org/pub/OFL/Embedding" />
        <cc:permits
           rdf:resource="http://scripts.sil.org/pub/OFL/DerivativeWorks" />
        <cc:requires
           rdf:resource="http://scripts.sil.org/pub/OFL/Notice" />
        <cc:requires
           rdf:resource="http://scripts.sil.org/pub/OFL/Attribution" />
        <cc:requires
           rdf:resource="http://scripts.sil.org/pub/OFL/ShareAlike" />
        <cc:requires
           rdf:resource="http://scripts.sil.org/pub/OFL/DerivativeRenaming" />
        <cc:requires
           rdf:resource="http://scripts.sil.org/pub/OFL/BundlingWhenSelling" />
      </cc:License>
    </rdf:RDF>
  </metadata>
  <g
     inkscape:label="Capa 1"
     inkscape:groupmode="layer"
     id="layer1">
    <g
       id="rect47"
       style="opacity:1"
       inkscape:transform-center-x="0.52916666"
       inkscape:transform-center-y="0.79374994"
       transform="translate(-26.51797,125.72359)" />
    <g
       id="rect77"
       transform="matrix(0.98179228,-0.18995768,0,1,-32.808334,75.670834)"
       style="opacity:1" />
    <g
       id="surface1"
       transform="matrix(0.04358822,0,0,0.04358822,-0.23453423,-0.72331605)">
      <path
         style="fill:#d7192e;fill-opacity:1;fill-rule:nonzero;stroke:none"
         d="M 439.49609,281.92187 H 174.92187 V 17.460938 h 264.57422 z m 0,0"
         id="path2" />
      <path
         style="fill:#ffffff;fill-opacity:1;fill-rule:nonzero;stroke:none"
         d="M 294.9375,137.56641 H 198.63281 V 34.070312 h 23.86328 v 79.468748 h 48.33985 V 33.464844 H 294.9375 Z M 262.82812,25.375 v 80.13672 H 231.16406 V 25.375 H 190.69141 V 145.70312 H 302.95312 V 25.375 Z m 0,0"
         id="path4" />
      <path
         style="fill:#ffffff;fill-opacity:1;fill-rule:nonzero;stroke:none"
         d="m 343.11719,210.00391 h 72.08984 v 55.92968 h -96.23047 v -15.94922 h 80.15235 V 225.8125 h -80.15235 v -64.10938 h 96.42578 v 16.09766 h -72.28515 z m 80.21093,-24.23438 V 153.6875 H 310.96094 v 79.88672 H 391.125 v 7.83203 h -80.16406 v 32.27344 h 112.26562 v -63.67578 l 0.0156,-8.21094 h -72.19141 v -16.02344 z m 0,0"
         id="path6" />
      <path
         style="fill:#ffffff;fill-opacity:1;fill-rule:nonzero;stroke:none"
         d="m 222.78125,233.59375 v 32.59766 H 198.63281 V 161.70312 h 96.30078 v 71.89063 z M 302.48437,153.6875 H 190.69141 v 120.21875 h 40.47656 v -31.74219 h 71.78515 V 153.6875 Z m 0,0"
         id="path8" />
      <path
         style="fill:#ffffff;fill-opacity:1;fill-rule:nonzero;stroke:none"
         d="m 262.82812,209.80078 h -31.66406 v -24.14062 h 31.66406 z m -40.33593,-32.02344 v 40.02735 h 48.34375 v -40.02735 z m 0,0"
         id="path10" />
      <path
         style="fill:#ffffff;fill-opacity:1;fill-rule:nonzero;stroke:none"
         d="m 415.16016,57.550781 h -72.20313 v 32.035157 h 56.17188 v 24.093752 h -56.17188 v 24.01172 H 318.97656 V 33.363281 h 96.1836 z M 310.96094,25.460938 V 145.99219 h 40.08984 v -24.33594 h 56.16406 V 81.789062 H 351.13281 V 65.503906 h 72.01172 V 25.460938 Z m 0,0"
         id="path12" />
      <path
         id="path14"
         style="fill:#211e1e;fill-opacity:1;fill-rule:nonzero;stroke:none;stroke-width:1.33333"
         d="M 350.60938,402.4375 339.94336,405 v 18.30664 c -2.84896,-1.42188 -6.00586,-2.13476 -9.47461,-2.13476 -6.31771,0 -11.57357,2.27018 -15.77148,6.80664 -4.19271,4.54166 -6.29688,10.42317 -6.29688,17.65234 0,7.22396 1.82813,12.85807 5.48438,16.89453 3.65625,4.04167 8.67317,6.0625 15.04296,6.0625 2.25,0 4.42709,-0.35872 6.53125,-1.08789 2.10938,-0.72917 3.59896,-1.57227 4.48438,-2.54102 v 2.7754 h 10.66602 z m 88.5625,0 L 428.50586,405 v 18.30664 c -2.84896,-1.42188 -6.00651,-2.13476 -9.48047,-2.13476 -6.3125,0 -11.57292,2.27018 -15.76562,6.80664 -4.19792,4.54166 -6.29688,10.42317 -6.29688,17.65234 0,7.22396 1.82813,12.85807 5.48438,16.89453 3.65624,4.04167 8.67187,6.0625 15.04687,6.0625 2.24479,0 4.42318,-0.35872 6.52734,-1.08789 2.10938,-0.72917 3.59896,-1.57227 4.48438,-2.54102 v 2.7754 h 10.66602 z m -317.50586,1.88086 c -1.70313,0 -3.16081,0.60417 -4.36914,1.8125 -1.20834,1.21354 -1.8125,2.66667 -1.8125,4.375 -1e-5,1.70833 0.60416,3.16667 1.8125,4.375 1.20833,1.20833 2.66601,1.8125 4.36914,1.8125 1.70833,0 3.17187,-0.60417 4.375,-1.8125 1.21354,-1.20833 1.81836,-2.66667 1.81836,-4.375 -1e-5,-1.70833 -0.60482,-3.16146 -1.81836,-4.375 -1.20313,-1.20833 -2.66667,-1.8125 -4.375,-1.8125 z m 175.52734,0 c -1.70312,0 -3.16276,0.60417 -4.37109,1.8125 -1.21355,1.21354 -1.8125,2.66667 -1.8125,4.375 0,1.70833 0.59895,3.16667 1.8125,4.375 1.20833,1.20833 2.66797,1.8125 4.37109,1.8125 1.70833,0 3.16667,-0.60417 4.375,-1.8125 1.21354,-1.20833 1.81641,-2.66667 1.81641,-4.375 0,-1.70833 -0.60287,-3.16146 -1.81641,-4.375 -1.20833,-1.20833 -2.66667,-1.8125 -4.375,-1.8125 z m 385.23828,0 c -1.70833,0 -3.16667,0.60417 -4.375,1.8125 -1.20833,1.21354 -1.8125,2.66667 -1.8125,4.375 0,1.70833 0.60417,3.16667 1.8125,4.375 1.20833,1.20833 2.66667,1.8125 4.375,1.8125 1.70312,0 3.16667,-0.60417 4.375,-1.8125 1.20833,-1.20833 1.81836,-2.66667 1.81836,-4.375 0,-1.70833 -0.61003,-3.16146 -1.81836,-4.375 -1.20833,-1.20833 -2.67188,-1.8125 -4.375,-1.8125 z m -670.578124,0.89453 v 42.97461 c 0,6.63021 1.974609,11.72396 5.912109,15.28125 3.942708,3.55208 9.541016,5.33398 16.791016,5.33398 7.197915,0 12.953123,-1.82421 17.265625,-5.46484 4.30729,-3.64062 6.464843,-8.67643 6.464843,-15.10351 V 405.21289 H 47.193359 V 447.375 c 0,3.58854 -1.115233,6.41211 -3.349609,8.47461 -2.234375,2.06771 -5.358725,3.09375 -9.369141,3.09375 -3.588542,0 -6.402342,-1.05208 -8.449218,-3.15625 -2.046875,-2.10938 -3.072266,-4.83984 -3.072266,-8.19922 v -42.375 z m 456.218754,0 v 62.52149 h 11.09375 v -28.59376 h 21.9746 v -9.43164 h -21.9746 v -14.63671 h 30.08984 v -9.85938 z M 88.568359,421.17188 c -5.661457,0 -9.942708,1.70833 -12.84375,5.125 l -1.964843,-4.27149 h -7.681641 v 45.70899 H 76.75 v -33.03126 c 0.994792,-1.31249 2.380859,-2.40169 4.162109,-3.2871 1.776042,-0.88021 3.447266,-1.32227 5.009766,-1.32227 3.390625,0 5.827474,0.89583 7.322266,2.6875 1.489582,1.79167 2.240234,4.63607 2.240234,8.53711 v 26.41602 h 10.666015 v -28.03711 c 0,-5.83855 -1.56706,-10.38021 -4.71289,-13.64063 -3.145833,-3.25521 -7.431641,-4.88476 -12.869141,-4.88476 z m 107.878911,0 c -6.22917,0 -11.57227,2.23437 -16.02539,6.70312 -4.45313,4.46354 -6.68165,10.30143 -6.68165,17.49414 0,7.3125 2.02995,13.01042 6.08204,17.09375 4.05729,4.08333 9.56901,6.125 16.54296,6.125 7.44792,0 13.05665,-1.52083 16.80665,-4.5625 l -4.13477,-8.15625 c -2.53125,2.53125 -6.23438,3.79688 -11.09375,3.79688 -3.90104,0 -7.0013,-1.00456 -9.30859,-3.0254 -2.30209,-2.02083 -3.55079,-4.8483 -3.75391,-8.49414 h 32.65039 c 0.59375,-2.64583 0.89063,-4.62109 0.89063,-5.93359 -10e-6,-6.11458 -2.00001,-11.15104 -6.01563,-15.10937 -4.01042,-3.95313 -9.33398,-5.93164 -15.95898,-5.93164 z m 48.71875,0 c -4.94792,0 -8.92188,1.68294 -11.90625,5.0371 v -4.18359 h -10.66602 v 45.70899 h 10.66602 v -26.03711 c 0,-3.23959 0.95898,-5.98438 2.88085,-8.23438 1.92188,-2.24479 4.1198,-3.36914 6.59376,-3.36914 2.27604,0 4.36523,0.62565 6.27148,1.88086 l 4.52539,-9.13672 c -1.9375,-1.10937 -4.72461,-1.66601 -8.36523,-1.66601 z m 23.5,0 c -4.69792,0 -8.55079,1.10416 -11.56641,3.3125 -3.01563,2.20312 -4.52734,5.28125 -4.52734,9.23437 0,5.89063 3.94401,10.47331 11.82421,13.74414 3.61459,1.50521 6.04167,2.81771 7.29688,3.92188 1.25,1.11458 1.875,2.5371 1.875,4.27148 0,2.95833 -2.07422,4.4375 -6.23047,4.4375 -4.01042,0 -7.60872,-1.26562 -10.79101,-3.79687 l -3.80274,8.49023 c 2.875,1.53646 5.22917,2.55664 7.0625,3.05664 1.83854,0.49479 4.27669,0.74414 7.31836,0.74414 5.40625,0 9.68229,-1.2181 12.82812,-3.65039 3.14063,-2.43229 4.7129,-5.76628 4.7129,-10.00586 0,-3.1875 -0.87891,-5.90625 -2.64454,-8.15625 -1.76562,-2.24479 -4.65169,-4.15495 -8.6621,-5.73828 -4.01563,-1.57813 -6.62956,-2.83399 -7.85352,-3.77149 -1.22396,-0.9427 -1.83398,-1.99544 -1.83398,-3.1621 -10e-6,-2.95834 1.85872,-4.4375 5.58789,-4.4375 4.15104,0 7.39713,0.99544 9.73046,2.99023 l 3.07227,-8.28125 c -4.17708,-2.13542 -8.65169,-3.20312 -13.39648,-3.20312 z m 103.09375,0 c -5.0625,-10e-6 -9.43165,0.88476 -13.10352,2.65039 l 2.30664,8.27734 c 2.70313,-1.33854 6.0638,-2.00586 10.07422,-2.00586 6.79687,0 10.19727,2.6875 10.19727,8.0625 -1.70834,-0.42188 -3.18751,-0.63477 -4.4375,-0.63477 -7.3125,0 -12.95313,1.48894 -16.92188,4.47852 -3.96875,2.98437 -5.95312,7.13021 -5.95312,12.42188 -10e-6,4.52083 1.4121,8.01106 4.2246,10.4746 2.81771,2.46355 6.6875,3.69141 11.60938,3.69141 2.61458,0 5.13021,-0.50521 7.53125,-1.51562 2.40104,-1.01042 4.08789,-2.31251 5.05664,-3.90625 0.42708,1.33854 1.25065,2.57422 2.47461,3.71484 1.22396,1.14062 2.60417,1.70703 4.14062,1.70703 1.39584,0 2.62956,-0.17578 3.7129,-0.53516 1.07812,-0.35416 2.06315,-1.29817 2.94335,-2.83984 -2.44791,-1.5625 -3.66796,-5.38932 -3.66796,-11.47266 v -9.77734 c 0,-8.84375 -1.62435,-14.85937 -4.86915,-18.03125 -3.23958,-3.17188 -8.3444,-4.75976 -15.31835,-4.75976 z m 164.875,0 c -4.95313,0 -8.92188,1.68294 -11.90625,5.0371 v -4.18359 h -10.67188 v 45.70899 h 10.67188 v -26.03711 c 0,-3.23959 0.95898,-5.98438 2.88086,-8.23438 1.92187,-2.24479 4.11979,-3.36914 6.59374,-3.36914 2.27605,0 4.36524,0.62565 6.27149,1.88086 L 545,422.83789 c -1.9375,-1.10937 -4.72461,-1.66601 -8.36523,-1.66601 z m 22.51562,0 c -5.06771,-10e-6 -9.43164,0.88476 -13.10351,2.65039 l 2.30664,8.27734 c 2.70312,-1.33854 6.06315,-2.00586 10.06836,-2.00586 6.80208,0 10.20312,2.6875 10.20312,8.0625 -1.70833,-0.42188 -3.1875,-0.63477 -4.4375,-0.63477 -7.3125,0 -12.95313,1.48894 -16.92188,4.47852 -3.97395,2.98437 -5.95312,7.13021 -5.95312,12.42188 0,4.52083 1.4069,8.01106 4.22461,10.4746 2.81771,2.46355 6.6875,3.69141 11.60937,3.69141 2.61459,0 5.12501,-0.50521 7.53125,-1.51562 2.40105,-1.01042 4.0879,-2.31251 5.05665,-3.90625 0.42708,1.33854 1.25065,2.57422 2.4746,3.71484 1.22396,1.14062 2.60417,1.70703 4.14063,1.70703 1.39062,0 2.62956,-0.17578 3.71289,-0.53516 1.07813,-0.35416 2.06315,-1.29817 2.94336,-2.83984 -2.44792,-1.5625 -3.66797,-5.38932 -3.66797,-11.47266 v -9.77734 c 0,-8.84375 -1.62435,-14.85937 -4.86914,-18.03125 -3.23958,-3.17188 -8.34961,-4.75976 -15.31836,-4.75976 z m 49.82813,0 c -5.66146,0 -9.94271,1.70833 -12.84375,5.125 l -1.96289,-4.27149 h -7.68165 v 45.70899 h 10.66602 v -33.03126 c 0.99479,-1.31249 2.38607,-2.40169 4.16211,-3.2871 1.77604,-0.88021 3.45312,-1.32227 5.01562,-1.32227 3.38542,0 5.82227,0.89583 7.32227,2.6875 1.48958,1.79167 2.24023,4.63607 2.24023,8.53711 v 26.41602 h 10.66602 v -28.03711 c 0,-5.83855 -1.57292,-10.38021 -4.71875,-13.64063 -3.14062,-3.25521 -7.43294,-4.88476 -12.86523,-4.88476 z m 46.71484,0 c -7.70833,-10e-6 -13.79688,2.2194 -18.26563,6.6621 -4.46874,4.4375 -6.69921,10.25521 -6.69921,17.45313 0,7.3125 2.03776,13.02018 6.12109,17.13477 4.08333,4.11458 9.65495,6.16601 16.70703,6.16601 3.15625,0 5.89583,-0.25911 8.21875,-0.76953 2.31771,-0.51042 5.02669,-1.73568 8.13086,-3.66797 l -3.93164,-8.40625 c -3.01042,2.61458 -6.5,3.92188 -10.45313,3.92188 -9.1302,0 -13.69921,-4.79037 -13.69921,-14.37891 0,-4.75 1.17252,-8.47461 3.52148,-11.16211 2.34375,-2.6875 5.54167,-4.03125 9.57813,-4.03125 4.20833,0 7.56705,1.18229 10.07226,3.54687 l 4.56836,-7.98437 c -3.92708,-2.98958 -8.55143,-4.48437 -13.86914,-4.48437 z m 53.18164,0 c -4.69271,0 -8.55208,1.10416 -11.5625,3.3125 -3.01563,2.20312 -4.52539,5.28125 -4.52539,9.23437 0,5.89063 3.94141,10.47331 11.81641,13.74414 3.61458,1.50521 6.04752,2.81771 7.30273,3.92188 1.25,1.11458 1.875,2.5371 1.875,4.27148 0,2.95833 -2.07227,4.4375 -6.22852,4.4375 -4.01041,0 -7.60937,-1.26562 -10.79687,-3.79687 l -3.79688,8.49023 c 2.875,1.53646 5.22917,2.55664 7.0625,3.05664 1.83334,0.49479 4.26954,0.74414 7.31641,0.74414 5.40104,0 9.68359,-1.2181 12.82422,-3.65039 3.14583,-2.43229 4.71875,-5.76628 4.71875,-10.00586 0,-3.1875 -0.88607,-5.90625 -2.64648,-8.15625 -1.76563,-2.24479 -4.6517,-4.15495 -8.66211,-5.73828 -4.01563,-1.57813 -6.63477,-2.83399 -7.85352,-3.77149 -1.22396,-0.9427 -1.83398,-1.99544 -1.83398,-3.1621 0,-2.95834 1.86067,-4.4375 5.58984,-4.4375 4.15625,0 7.39518,0.99544 9.72851,2.99023 l 3.07227,-8.28125 c -4.18229,-2.13542 -8.64518,-3.20312 -13.40039,-3.20312 z m 42.14648,0 c -7.70833,-10e-6 -13.79817,2.2194 -18.26171,6.6621 -4.46875,4.4375 -6.70313,10.25521 -6.70313,17.45313 0,7.3125 2.04167,13.02018 6.125,17.13477 4.08333,4.11458 9.65169,6.16601 16.70898,6.16601 3.15625,0 5.88998,-0.25911 8.2129,-0.76953 2.3177,-0.51042 5.02604,-1.73568 8.125,-3.66797 l -3.91602,-8.40625 c -3.02083,2.61458 -6.50977,3.92188 -10.46289,3.92188 -9.13021,0 -13.69336,-4.79037 -13.69336,-14.37891 0,-4.75 1.16667,-8.47461 3.51563,-11.16211 2.34895,-2.6875 5.54231,-4.03125 9.58398,-4.03125 4.20833,0 7.56641,1.18229 10.06641,3.54687 l 4.56835,-7.98437 c -3.92187,-2.98958 -8.54622,-4.48437 -13.86914,-4.48437 z m 37.36914,0 c -6.60416,0 -11.91145,2.19205 -15.9375,6.57226 -4.03125,4.38542 -6.04101,10.05859 -6.04101,17.02734 0,7.20313 1.92708,12.9681 5.78125,17.30664 3.85937,4.33855 9.25456,6.50977 16.19726,6.50977 6.79688,0 12.1517,-2.14974 16.06836,-6.44141 3.91146,-4.29687 5.86914,-10.08854 5.86914,-17.375 0,-7.30729 -1.92187,-13.0677 -5.76562,-17.28125 -3.83854,-4.20833 -9.22917,-6.31835 -16.17188,-6.31835 z m -658.92773,0.85351 20.65625,46.5625 h 3.83984 l 21.16602,-46.5625 h -11.30664 l -11.73438,27.91211 -10.92773,-27.91211 z m -19.14453,0.006 v 8.74414 h 5.84375 v 36.95899 h 10.80078 v -45.70313 z m 175.52539,0 v 8.74414 h 5.84375 v 36.95899 h 10.80273 v -45.70313 z m 385.24023,0 v 8.74414 h 5.8379 v 36.95899 h 10.80273 v -45.70313 z m 117.30664,7.84961 c 7.22396,0 10.8379,4.96354 10.8379,14.89062 0,4.83855 -0.97396,8.56771 -2.92188,11.1875 -1.94792,2.61459 -4.58789,3.92188 -7.91602,3.92188 -7.2552,0 -10.88476,-5.03125 -10.88476,-15.10938 0,-4.6927 0.98307,-8.35026 2.94141,-10.96484 1.96874,-2.61979 4.61523,-3.92578 7.94335,-3.92578 z m -591.77148,0.21289 c 6.65625,0 10.35417,3.3431 11.09375,10.02539 h -22.44727 c 1.47917,-6.68229 5.25977,-10.02539 11.35352,-10.02539 z m 136.19336,0.13086 c 2.47396,0 4.84961,0.91081 7.13086,2.72851 v 23.85352 c -0.45833,0.63021 -1.43294,1.25 -2.92774,1.85938 -1.48958,0.60937 -2.74934,0.91796 -3.77539,0.91796 -9.16145,0 -13.74023,-4.75586 -13.74023,-14.25586 0,-4.86458 1.15104,-8.59375 3.45312,-11.20312 2.3073,-2.59896 5.59375,-3.90039 9.85938,-3.90039 z m 88.5625,0 c 2.47396,0 4.84961,0.91081 7.13086,2.72851 v 23.85352 c -0.45833,0.63021 -1.43294,1.25 -2.92774,1.85938 -1.49479,0.60937 -2.74934,0.91796 -3.77539,0.91796 -9.16145,0 -13.74609,-4.75586 -13.74609,-14.25586 0,-4.86458 1.1569,-8.59375 3.45898,-11.20312 2.3073,-2.59896 5.59375,-3.90039 9.85938,-3.90039 z m -44.15039,15.44727 c 0.91146,0 2.27474,0.18164 4.09766,0.55664 v 4.26562 c 0,6.40104 -3.20248,9.59961 -9.60352,9.59961 -4.75,0 -7.13086,-2.04688 -7.13086,-6.14063 0,-5.52604 4.21484,-8.28124 12.63672,-8.28124 z m 187.39062,0 c 0.90625,0 2.27084,0.18164 4.09375,0.55664 v 4.26562 c 0,6.40104 -3.19856,9.59961 -9.5996,9.59961 -4.75521,0 -7.13086,-2.04688 -7.13086,-6.14063 0,-5.52604 4.21484,-8.28124 12.63671,-8.28124 z M 48.9375,480.0685 l -10.125,2.42578 v 17.37109 c -2.697916,-1.34895 -5.69336,-2.02148 -8.990234,-2.02148 -5.989584,0 -10.972657,2.15104 -14.957032,6.45313 -3.979168,4.30729 -5.9687496,9.88606 -5.9687496,16.74023 0,6.85937 1.7343746,12.20182 5.2031246,16.03516 3.46875,3.83333 8.222657,5.75 14.269532,5.75 2.130208,0 4.193359,-0.34245 6.193359,-1.03516 1.994792,-0.68229 3.416667,-1.48958 4.25,-2.40625 v 2.62891 h 10.125 z m 252.44336,0 -10.12109,2.42578 v 50.77734 c 0,6.36459 2.29231,9.55079 6.88085,9.55079 3.78125,0 6.45313,-1.48959 8.01563,-4.45313 -3.1875,-1.02604 -4.77539,-4.21289 -4.77539,-9.55664 z m 411.09375,0 -10.12109,2.42578 v 17.37109 c -2.70313,-1.34895 -5.69662,-2.02148 -8.98829,-2.02148 -5.98958,0 -10.97461,2.15104 -14.95898,6.45313 -3.97917,4.30729 -5.97461,9.88606 -5.97461,16.74023 0,6.85937 1.73958,12.20182 5.20313,16.03516 3.46875,3.83333 8.2246,5.75 14.27148,5.75 2.13542,0 4.19857,-0.34245 6.19336,-1.03516 2,-0.68229 3.42057,-1.48958 4.25391,-2.40625 v 2.62891 h 10.12109 z m -303.53711,1.619 c -5.26563,0 -9.57226,1.51628 -12.93164,4.53711 -3.36458,3.02083 -5.04297,6.82747 -5.04297,11.41601 0,2.45313 0.42839,4.69792 1.27734,6.71876 0.84896,2.02083 2.0625,3.77669 3.64063,5.24023 1.58333,1.47396 4.63932,3.35286 9.19141,5.62891 4.54687,2.28645 7.55273,4.33919 9.00585,6.17773 1.45834,1.83333 2.1875,3.76628 2.1875,5.78711 10e-6,4.31771 -3.08919,6.47852 -9.27148,6.47852 -4.02083,0 -8.10938,-1.45769 -12.26562,-4.36915 l -3.89063,9.42579 c 4.45833,2.86458 9.44792,4.29687 14.98438,4.29687 6.36458,0 11.44856,-1.55729 15.24023,-4.65625 3.79167,-3.10938 5.6875,-7.05729 5.6875,-11.85937 0,-2.67709 -0.45833,-5.09766 -1.375,-7.26954 -0.91667,-2.17187 -2.25586,-4.07356 -4.00586,-5.70898 -1.76042,-1.63542 -4.61393,-3.41732 -8.58789,-5.36523 -7.52604,-3.67188 -11.29102,-7.20834 -11.29102,-10.60938 0,-2.04688 0.66537,-3.71875 2.00391,-5 1.33854,-1.27604 3.2194,-1.91602 5.64648,-1.91602 4.10417,0 7.99935,1.31706 11.69727,3.9629 l 3.19922,-9.07227 c -3.20833,-2.55729 -8.24024,-3.84375 -15.09961,-3.84375 z m -254.38477,0.60938 c -1.18749,0 -5.29297,0.14648 -12.30859,0.44335 v 59.26954 h 10.52734 v -21.81641 c 1.9948,0.1875 3.5879,0.27539 4.7754,0.27539 16.03125,0 24.04687,-6.79622 24.04687,-20.40039 0,-6.09896 -2.16602,-10.58399 -6.49414,-13.45898 -4.33333,-2.875 -11.18229,-4.3125 -20.54688,-4.3125 z m 395.62891,3.80664 -10.125,3.7246 v 8.82813 h -5.01953 v 8.13477 h 5.01953 v 21.9375 c 0,4.51041 1.16146,7.98502 3.48438,10.42773 2.32291,2.44271 5.64127,3.66602 9.95898,3.66602 4.34375,0 7.69336,-0.4056 10.03711,-1.21289 v -9.3125 c -2.10417,1.32291 -4.36979,1.97851 -6.79688,1.97851 -2.43229,0 -4.13151,-0.63997 -5.10546,-1.91601 -0.96875,-1.28646 -1.45313,-3.47917 -1.45313,-6.57813 v -18.99023 h 11.90234 v -8.13477 h -11.90234 z m -394.21289,5.54296 c 9.90625,0 14.85937,3.07748 14.85937,9.22852 0,3.61979 -1.10872,6.23372 -3.32226,7.83789 -2.21354,1.60417 -5.72005,2.41211 -10.52734,2.41211 -1.02605,0 -2.42579,-0.0996 -4.20704,-0.28711 v -18.98437 c 1.02084,-0.14063 2.0879,-0.20704 3.19727,-0.20704 z m -74.890625,6.19727 c -5.911459,0 -10.979166,2.11914 -15.203125,6.35352 -4.223959,4.23958 -6.333984,9.77148 -6.333984,16.59961 0,6.93749 1.921874,12.3431 5.765625,16.21289 3.848958,3.875 9.078775,5.8125 15.693359,5.8125 7.067708,0 12.384764,-1.44662 15.947266,-4.33204 l -3.925782,-7.73437 c -2.401041,2.40104 -5.912761,3.60352 -10.527343,3.60352 -3.697918,0 -6.639974,-0.95834 -8.822266,-2.875 -2.1875,-1.91146 -3.380208,-4.59962 -3.5625,-8.05274 h 30.962895 c 0.57291,-2.51562 0.85546,-4.38932 0.85546,-5.62891 0,-5.80208 -1.90169,-10.57877 -5.70898,-14.33398 -3.807291,-3.75 -8.854166,-5.625 -15.140625,-5.625 z m 122.740235,0 c -4.80729,0 -8.94857,0.83789 -12.42774,2.50977 l 2.1875,7.85546 c 2.5625,-1.27083 5.74545,-1.90625 9.55274,-1.90625 6.45312,0 9.67578,2.55209 9.67578,7.65625 -1.61979,-0.40625 -3.02539,-0.60937 -4.21289,-0.60937 -6.9375,0 -12.28711,1.41667 -16.05273,4.25 -3.76563,2.83333 -5.64454,6.76042 -5.64454,11.78125 0,4.29167 1.33724,7.60286 4.00391,9.94141 2.67708,2.32812 6.34375,3.5 11.01563,3.5 2.47916,0 4.86002,-0.47917 7.14648,-1.4375 2.27604,-0.95834 3.88021,-2.19141 4.79688,-3.70704 0.40625,1.27084 1.18749,2.44206 2.34374,3.52539 1.16146,1.07813 2.4681,1.61915 3.93165,1.61915 1.3177,0 2.49544,-0.16537 3.52148,-0.50391 1.02083,-0.33854 1.95247,-1.24023 2.79102,-2.69336 -2.32292,-1.48437 -3.47852,-5.11458 -3.47852,-10.89062 v -9.27149 c 0,-8.39062 -1.54232,-14.09896 -4.61523,-17.10937 -3.07813,-3.00521 -7.92579,-4.50977 -14.53516,-4.50977 z m 127.55664,0 c -4.80208,0 -8.94857,0.83789 -12.42773,2.50977 l 2.18359,7.85546 c 2.56771,-1.27083 5.75456,-1.90625 9.55664,-1.90625 6.45313,0 9.67773,2.55209 9.67773,7.65625 -1.61979,-0.40625 -3.02669,-0.60937 -4.20898,-0.60937 -6.94271,0 -12.29102,1.41667 -16.05664,4.25 -3.76042,2.83333 -5.64649,6.76042 -5.64649,11.78125 0,4.29167 1.3392,7.60286 4.00586,9.94141 2.67188,2.32812 6.34375,3.5 11.01563,3.5 2.47917,0 4.86328,-0.47917 7.14453,-1.4375 2.28125,-0.95834 3.875,-2.19141 4.79688,-3.70704 0.40104,1.27084 1.18815,2.44206 2.3496,3.52539 1.16146,1.07813 2.46941,1.61915 3.92774,1.61915 1.31771,0 2.49349,-0.16537 3.51953,-0.50391 1.02604,-0.33854 1.95443,-1.24023 2.79297,-2.69336 -2.32292,-1.48437 -3.48047,-5.11458 -3.48047,-10.89062 v -9.27149 c 0,-8.39062 -1.53516,-14.09896 -4.61328,-17.10937 -3.07813,-3.00521 -7.92253,-4.50977 -14.53711,-4.50977 z m 121.48438,0 c -4.80209,0 -8.94857,0.83789 -12.42774,2.50977 l 2.1875,7.85546 c 2.5625,-1.27083 5.74544,-1.90625 9.55274,-1.90625 6.45312,0 9.67773,2.55209 9.67773,7.65625 -1.61979,-0.40625 -3.02214,-0.60937 -4.21484,-0.60937 -6.9375,0 -12.28516,1.41667 -16.05079,4.25 -3.76041,2.83333 -5.64648,6.76042 -5.64648,11.78125 0,4.29167 1.33268,7.60286 4.00977,9.94141 2.67187,2.32812 6.33984,3.5 11.01171,3.5 2.47917,0 4.86329,-0.47917 7.14454,-1.4375 2.28124,-0.95834 3.8802,-2.19141 4.79687,-3.70704 0.40625,1.27084 1.18815,2.44206 2.34961,3.52539 1.16146,1.07813 2.4694,1.61915 3.92773,1.61915 1.32292,0 2.49349,-0.16537 3.51954,-0.50391 1.02604,-0.33854 1.95963,-1.24023 2.79296,-2.69336 -2.3177,-1.48437 -3.48046,-5.11458 -3.48046,-10.89062 v -9.27149 c 0,-8.39062 -1.53516,-14.09896 -4.61329,-17.10937 -3.07812,-3.00521 -7.92252,-4.50977 -14.5371,-4.50977 z m 54.73437,0 c -5.375,0 -9.4375,1.61979 -12.1875,4.85937 l -1.86523,-4.05273 h -7.28125 v 43.35938 h 10.12109 v -31.33204 c 0.94271,-1.23958 2.25977,-2.28255 3.94726,-3.12109 1.6823,-0.83333 3.27149,-1.25391 4.75586,-1.25391 3.20834,0 5.52474,0.84766 6.94141,2.55079 1.41667,1.70312 2.125,4.40169 2.125,8.0996 v 25.05665 h 10.12109 v -26.59766 c 0,-5.53125 -1.49023,-9.84505 -4.4746,-12.93359 -2.97917,-3.08855 -7.05209,-4.63477 -12.20313,-4.63477 z m 81.20898,0 c -4.80729,0 -8.94921,0.83789 -12.43359,2.50977 l 2.1875,7.85546 c 2.5625,-1.27083 5.74544,-1.90625 9.55274,-1.90625 6.45312,0 9.67773,2.55209 9.67773,7.65625 -1.61979,-0.40625 -3.02669,-0.60937 -4.20899,-0.60937 -6.93749,0 -12.2858,1.41667 -16.05664,4.25 -3.76041,2.83333 -5.64648,6.76042 -5.64648,11.78125 0,4.29167 1.33789,7.60286 4.00977,9.94141 2.67187,2.32812 6.34375,3.5 11.01562,3.5 2.47917,0 4.85938,-0.47917 7.14063,-1.4375 2.28125,-0.95834 3.8802,-2.19141 4.79687,-3.70704 0.40625,1.27084 1.18815,2.44206 2.34961,3.52539 1.16146,1.07813 2.4694,1.61915 3.92773,1.61915 1.32292,0 2.49349,-0.16537 3.51954,-0.50391 1.02604,-0.33854 1.95833,-1.24023 2.79687,-2.69336 -2.32292,-1.48437 -3.48437,-5.11458 -3.48437,-10.89062 v -9.27149 c 0,-8.39062 -1.54037,-14.09896 -4.61329,-17.10937 -3.07812,-3.00521 -7.92187,-4.50977 -14.53125,-4.50977 z m 54.73438,0 c -5.375,0 -9.43815,1.61979 -12.19336,4.85937 l -1.85937,-4.05273 h -7.28711 v 43.35938 h 10.12109 v -31.33204 c 0.94271,-1.23958 2.25977,-2.28255 3.94726,-3.12109 1.6823,-0.83333 3.27149,-1.25391 4.75586,-1.25391 3.20834,0 5.52474,0.84766 6.94141,2.55079 1.41667,1.70312 2.125,4.40169 2.125,8.0996 v 25.05665 h 10.125 v -26.59766 c 0,-5.53125 -1.49414,-9.84505 -4.47851,-12.93359 -2.97917,-3.08855 -7.04623,-4.63477 -12.19727,-4.63477 z m 101.07812,0 c -5.91145,0 -10.97526,2.11914 -15.19921,6.35352 -4.22396,4.23958 -6.3379,9.77148 -6.3379,16.59961 10e-6,6.93749 1.92253,12.3431 5.77149,16.21289 3.84375,3.875 9.07292,5.8125 15.6875,5.8125 7.06771,0 12.39062,-1.44662 15.95312,-4.33204 l -3.92773,-7.73437 c -2.40625,2.40104 -5.91602,3.60352 -10.52539,3.60352 -3.70313,0 -6.64063,-0.95834 -8.82813,-2.875 -2.1875,-1.91146 -3.375,-4.59962 -3.5625,-8.05274 h 30.96875 c 0.56771,-2.51562 0.84766,-4.38932 0.84766,-5.62891 0,-5.80208 -1.89974,-10.57877 -5.70703,-14.33398 -3.80208,-3.75 -8.84896,-5.625 -15.14063,-5.625 z m 53.68165,0 c -4.69792,0 -8.46355,1.5931 -11.29688,4.77539 v -3.96875 h -10.11914 v 43.35938 H 787 v -24.69141 c 0,-3.07812 0.91081,-5.68294 2.72852,-7.81836 1.82291,-2.13021 3.91276,-3.19727 6.26171,-3.19727 2.15625,0 4.13998,0.59375 5.94727,1.78125 l 4.29102,-8.6621 c -1.83334,-1.05209 -4.47852,-1.57813 -7.93164,-1.57813 z m -561.08399,0.80664 v 28.14063 c 0,10.6875 5.0319,16.03125 15.09961,16.03125 2.10937,0 4.41667,-0.4323 6.92188,-1.29688 2.51562,-0.86458 4.48502,-1.90039 5.9121,-3.11914 v 3.64648 h 10.125 v -43.40234 h -10.125 v 29.80273 c -0.64583,1.5625 -1.95312,2.93751 -3.92187,4.125 -1.97396,1.1875 -4.10547,1.78126 -6.40234,1.78126 -4.98959,-10e-6 -7.48829,-2.7806 -7.48829,-8.3379 v -27.37109 z m -155.972656,7.65234 c 6.317708,0 9.822266,3.17709 10.525391,9.51563 H 70.46875 c 1.406251,-6.33854 4.995442,-9.51563 10.771484,-9.51563 z m 663.535156,0 c 6.31771,0 9.82943,3.17709 10.52734,9.51563 h -21.29296 c 1.40104,-6.33854 4.98958,-9.51563 10.76562,-9.51563 z m -712.722656,0.125 c 2.348959,0 4.598307,0.85873 6.759766,2.58789 v 22.63477 c -0.432292,0.58854 -1.354818,1.18294 -2.771484,1.75586 -1.416667,0.58333 -2.613282,0.86914 -3.582032,0.86914 -8.692707,0 -13.037109,-4.50391 -13.037109,-13.51953 0,-4.61458 1.09375,-8.15625 3.28125,-10.625 2.182291,-2.46875 5.297527,-3.70313 9.349609,-3.70313 z m 663.541016,0 c 2.34896,0 4.59831,0.85873 6.75977,2.58789 v 22.63477 c -0.4323,0.58854 -1.35873,1.18294 -2.7754,1.75586 -1.41666,0.58333 -2.61002,0.86914 -3.58398,0.86914 -8.6875,0 -13.03125,-4.50391 -13.03125,-13.51953 0,-4.61458 1.08984,-8.15625 3.27734,-10.625 2.1875,-2.46875 5.30665,-3.70313 9.35352,-3.70313 z M 209,521.08398 c 0.86458,0 2.1556,0.17578 3.88477,0.51954 v 4.05273 c 0,6.07292 -3.03646,9.10937 -9.10938,9.10937 -4.50521,0 -6.75977,-1.9427 -6.75977,-5.82812 0,-5.23437 3.9948,-7.85352 11.98438,-7.85352 z m 127.55664,0 c 0.86458,0 2.16276,0.17578 3.88672,0.51954 v 4.05273 c 0,6.07292 -3.03125,9.10937 -9.10938,9.10937 -4.5052,0 -6.76171,-1.9427 -6.76171,-5.82812 0,-5.23437 3.99479,-7.85352 11.98437,-7.85352 z m 121.48438,0 c 0.86458,0 2.16145,0.17578 3.89062,0.51954 v 4.05273 c 0,6.07292 -3.03646,9.10937 -9.10937,9.10937 -4.51042,0 -6.76563,-1.9427 -6.76563,-5.82812 0,-5.23437 3.99479,-7.85352 11.98438,-7.85352 z m 135.9375,0 c 0.86458,0 2.16145,0.17578 3.89062,0.51954 v 4.05273 c 0,6.07292 -3.03646,9.10937 -9.10937,9.10937 -4.51042,0 -6.75977,-1.9427 -6.75977,-5.82812 0,-5.23437 3.99414,-7.85352 11.97852,-7.85352 z"
         transform="scale(0.75000002)" />
    </g>
  </g>
</svg>
