<svg id="SvgjsSvg1001" width="360" height="360" xmlns="http://www.w3.org/2000/svg" version="1.1" xmlns:xlink="http://www.w3.org/1999/xlink" xmlns:svgjs="http://svgjs.com/svgjs"><defs id="SvgjsDefs1002"></defs><g id="SvgjsG1008" transform="matrix(1,0,0,1,0,0)"><svg xmlns="http://www.w3.org/2000/svg" enable-background="new 0 0 1000 1000" viewBox="0 0 1000 1000" width="360" height="360"><g opacity=".2" fill="#000000" class="color000 svgShape"><rect width="0" height="288.006" x="653.474" y="412.321" fill="none" stroke="#59000b" stroke-linecap="round" stroke-linejoin="round" stroke-miterlimit="10" stroke-width="6" transform="rotate(-180 653.474 556.324)" class="colorStroke153144 svgStroke"></rect><rect width="112" height="380.902" x="395.678" y="319.425" fill="none" stroke="#59000b" stroke-linecap="round" stroke-linejoin="round" stroke-miterlimit="10" stroke-width="6" class="colorStroke153144 svgStroke"></rect><line x1="415.113" x2="488.113" y1="617.327" y2="617.327" fill="none" stroke="#59000b" stroke-linecap="round" stroke-linejoin="round" stroke-miterlimit="10" stroke-width="6" class="colorStroke153144 svgStroke"></line><line x1="415.113" x2="488.113" y1="629.327" y2="629.327" fill="none" stroke="#59000b" stroke-linecap="round" stroke-linejoin="round" stroke-miterlimit="10" stroke-width="6" class="colorStroke153144 svgStroke"></line><line x1="415.113" x2="488.113" y1="583.327" y2="583.327" fill="none" stroke="#59000b" stroke-linecap="round" stroke-linejoin="round" stroke-miterlimit="10" stroke-width="6" class="colorStroke153144 svgStroke"></line><line x1="415.113" x2="488.113" y1="595.327" y2="595.327" fill="none" stroke="#59000b" stroke-linecap="round" stroke-linejoin="round" stroke-miterlimit="10" stroke-width="6" class="colorStroke153144 svgStroke"></line><line x1="415.113" x2="488.113" y1="549.327" y2="549.327" fill="none" stroke="#59000b" stroke-linecap="round" stroke-linejoin="round" stroke-miterlimit="10" stroke-width="6" class="colorStroke153144 svgStroke"></line><line x1="415.113" x2="488.113" y1="561.327" y2="561.327" fill="none" stroke="#59000b" stroke-linecap="round" stroke-linejoin="round" stroke-miterlimit="10" stroke-width="6" class="colorStroke153144 svgStroke"></line><line x1="415.113" x2="488.113" y1="515.327" y2="515.327" fill="none" stroke="#59000b" stroke-linecap="round" stroke-linejoin="round" stroke-miterlimit="10" stroke-width="6" class="colorStroke153144 svgStroke"></line><line x1="415.113" x2="488.113" y1="527.327" y2="527.327" fill="none" stroke="#59000b" stroke-linecap="round" stroke-linejoin="round" stroke-miterlimit="10" stroke-width="6" class="colorStroke153144 svgStroke"></line><line x1="415.113" x2="488.113" y1="481.327" y2="481.327" fill="none" stroke="#59000b" stroke-linecap="round" stroke-linejoin="round" stroke-miterlimit="10" stroke-width="6" class="colorStroke153144 svgStroke"></line><line x1="415.113" x2="488.113" y1="493.327" y2="493.327" fill="none" stroke="#59000b" stroke-linecap="round" stroke-linejoin="round" stroke-miterlimit="10" stroke-width="6" class="colorStroke153144 svgStroke"></line><line x1="415.113" x2="488.113" y1="447.327" y2="447.327" fill="none" stroke="#59000b" stroke-linecap="round" stroke-linejoin="round" stroke-miterlimit="10" stroke-width="6" class="colorStroke153144 svgStroke"></line><line x1="415.113" x2="488.113" y1="459.327" y2="459.327" fill="none" stroke="#59000b" stroke-linecap="round" stroke-linejoin="round" stroke-miterlimit="10" stroke-width="6" class="colorStroke153144 svgStroke"></line><g fill="#000000" class="color000 svgShape"><line x1="415.113" x2="488.113" y1="413.327" y2="413.327" fill="none" stroke="#59000b" stroke-linecap="round" stroke-linejoin="round" stroke-miterlimit="10" stroke-width="6" class="colorStroke153144 svgStroke"></line><line x1="415.113" x2="488.113" y1="425.327" y2="425.327" fill="none" stroke="#59000b" stroke-linecap="round" stroke-linejoin="round" stroke-miterlimit="10" stroke-width="6" class="colorStroke153144 svgStroke"></line></g><g fill="#000000" class="color000 svgShape"><line x1="415.113" x2="488.113" y1="379.327" y2="379.327" fill="none" stroke="#59000b" stroke-linecap="round" stroke-linejoin="round" stroke-miterlimit="10" stroke-width="6" class="colorStroke153144 svgStroke"></line><line x1="415.113" x2="488.113" y1="391.327" y2="391.327" fill="none" stroke="#59000b" stroke-linecap="round" stroke-linejoin="round" stroke-miterlimit="10" stroke-width="6" class="colorStroke153144 svgStroke"></line></g><g fill="#000000" class="color000 svgShape"><line x1="415.113" x2="488.113" y1="345.327" y2="345.327" fill="none" stroke="#59000b" stroke-linecap="round" stroke-linejoin="round" stroke-miterlimit="10" stroke-width="6" class="colorStroke153144 svgStroke"></line><line x1="415.113" x2="488.113" y1="357.327" y2="357.327" fill="none" stroke="#59000b" stroke-linecap="round" stroke-linejoin="round" stroke-miterlimit="10" stroke-width="6" class="colorStroke153144 svgStroke"></line></g><path fill="none" stroke="#59000b" stroke-linecap="round" stroke-linejoin="round" stroke-miterlimit="10" stroke-width="6" d="
		M488.678,319.425h-74v-43c0-20.435,16.565-37,37-37h0c20.435,0,37,16.565,37,37V319.425z" class="colorStroke153144 svgStroke"></path><rect width="145.787" height="20" x="507.687" y="392.321" fill="none" stroke="#59000b" stroke-linecap="round" stroke-linejoin="round" stroke-miterlimit="10" stroke-width="6" class="colorStroke153144 svgStroke"></rect><g fill="#000000" class="color000 svgShape"><line x1="631.113" x2="631.113" y1="644.327" y2="659.327" fill="none" stroke="#59000b" stroke-linecap="round" stroke-linejoin="round" stroke-miterlimit="10" stroke-width="6" class="colorStroke153144 svgStroke"></line><line x1="611.113" x2="611.113" y1="644.327" y2="659.327" fill="none" stroke="#59000b" stroke-linecap="round" stroke-linejoin="round" stroke-miterlimit="10" stroke-width="6" class="colorStroke153144 svgStroke"></line><line x1="591.113" x2="591.113" y1="644.327" y2="659.327" fill="none" stroke="#59000b" stroke-linecap="round" stroke-linejoin="round" stroke-miterlimit="10" stroke-width="6" class="colorStroke153144 svgStroke"></line><line x1="571.113" x2="571.113" y1="644.327" y2="659.327" fill="none" stroke="#59000b" stroke-linecap="round" stroke-linejoin="round" stroke-miterlimit="10" stroke-width="6" class="colorStroke153144 svgStroke"></line><line x1="551.113" x2="551.113" y1="644.327" y2="659.327" fill="none" stroke="#59000b" stroke-linecap="round" stroke-linejoin="round" stroke-miterlimit="10" stroke-width="6" class="colorStroke153144 svgStroke"></line><line x1="531.113" x2="531.113" y1="644.327" y2="659.327" fill="none" stroke="#59000b" stroke-linecap="round" stroke-linejoin="round" stroke-miterlimit="10" stroke-width="6" class="colorStroke153144 svgStroke"></line><g fill="#000000" class="color000 svgShape"><line x1="631.113" x2="631.113" y1="604.327" y2="619.327" fill="none" stroke="#59000b" stroke-linecap="round" stroke-linejoin="round" stroke-miterlimit="10" stroke-width="6" class="colorStroke153144 svgStroke"></line><line x1="611.113" x2="611.113" y1="604.327" y2="619.327" fill="none" stroke="#59000b" stroke-linecap="round" stroke-linejoin="round" stroke-miterlimit="10" stroke-width="6" class="colorStroke153144 svgStroke"></line><line x1="591.113" x2="591.113" y1="604.327" y2="619.327" fill="none" stroke="#59000b" stroke-linecap="round" stroke-linejoin="round" stroke-miterlimit="10" stroke-width="6" class="colorStroke153144 svgStroke"></line><line x1="571.113" x2="571.113" y1="604.327" y2="619.327" fill="none" stroke="#59000b" stroke-linecap="round" stroke-linejoin="round" stroke-miterlimit="10" stroke-width="6" class="colorStroke153144 svgStroke"></line><line x1="551.113" x2="551.113" y1="604.327" y2="619.327" fill="none" stroke="#59000b" stroke-linecap="round" stroke-linejoin="round" stroke-miterlimit="10" stroke-width="6" class="colorStroke153144 svgStroke"></line><line x1="531.113" x2="531.113" y1="604.327" y2="619.327" fill="none" stroke="#59000b" stroke-linecap="round" stroke-linejoin="round" stroke-miterlimit="10" stroke-width="6" class="colorStroke153144 svgStroke"></line></g><g fill="#000000" class="color000 svgShape"><line x1="631.113" x2="631.113" y1="564.327" y2="579.327" fill="none" stroke="#59000b" stroke-linecap="round" stroke-linejoin="round" stroke-miterlimit="10" stroke-width="6" class="colorStroke153144 svgStroke"></line><line x1="611.113" x2="611.113" y1="564.327" y2="579.327" fill="none" stroke="#59000b" stroke-linecap="round" stroke-linejoin="round" stroke-miterlimit="10" stroke-width="6" class="colorStroke153144 svgStroke"></line><line x1="591.113" x2="591.113" y1="564.327" y2="579.327" fill="none" stroke="#59000b" stroke-linecap="round" stroke-linejoin="round" stroke-miterlimit="10" stroke-width="6" class="colorStroke153144 svgStroke"></line><line x1="571.113" x2="571.113" y1="564.327" y2="579.327" fill="none" stroke="#59000b" stroke-linecap="round" stroke-linejoin="round" stroke-miterlimit="10" stroke-width="6" class="colorStroke153144 svgStroke"></line><line x1="551.113" x2="551.113" y1="564.327" y2="579.327" fill="none" stroke="#59000b" stroke-linecap="round" stroke-linejoin="round" stroke-miterlimit="10" stroke-width="6" class="colorStroke153144 svgStroke"></line><line x1="531.113" x2="531.113" y1="564.327" y2="579.327" fill="none" stroke="#59000b" stroke-linecap="round" stroke-linejoin="round" stroke-miterlimit="10" stroke-width="6" class="colorStroke153144 svgStroke"></line></g><g fill="#000000" class="color000 svgShape"><line x1="631.113" x2="631.113" y1="524.327" y2="539.327" fill="none" stroke="#59000b" stroke-linecap="round" stroke-linejoin="round" stroke-miterlimit="10" stroke-width="6" class="colorStroke153144 svgStroke"></line><line x1="611.113" x2="611.113" y1="524.327" y2="539.327" fill="none" stroke="#59000b" stroke-linecap="round" stroke-linejoin="round" stroke-miterlimit="10" stroke-width="6" class="colorStroke153144 svgStroke"></line><line x1="591.113" x2="591.113" y1="524.327" y2="539.327" fill="none" stroke="#59000b" stroke-linecap="round" stroke-linejoin="round" stroke-miterlimit="10" stroke-width="6" class="colorStroke153144 svgStroke"></line><line x1="571.113" x2="571.113" y1="524.327" y2="539.327" fill="none" stroke="#59000b" stroke-linecap="round" stroke-linejoin="round" stroke-miterlimit="10" stroke-width="6" class="colorStroke153144 svgStroke"></line><line x1="551.113" x2="551.113" y1="524.327" y2="539.327" fill="none" stroke="#59000b" stroke-linecap="round" stroke-linejoin="round" stroke-miterlimit="10" stroke-width="6" class="colorStroke153144 svgStroke"></line><line x1="531.113" x2="531.113" y1="524.327" y2="539.327" fill="none" stroke="#59000b" stroke-linecap="round" stroke-linejoin="round" stroke-miterlimit="10" stroke-width="6" class="colorStroke153144 svgStroke"></line></g><g fill="#000000" class="color000 svgShape"><line x1="631.113" x2="631.113" y1="484.327" y2="499.327" fill="none" stroke="#59000b" stroke-linecap="round" stroke-linejoin="round" stroke-miterlimit="10" stroke-width="6" class="colorStroke153144 svgStroke"></line><line x1="611.113" x2="611.113" y1="484.327" y2="499.327" fill="none" stroke="#59000b" stroke-linecap="round" stroke-linejoin="round" stroke-miterlimit="10" stroke-width="6" class="colorStroke153144 svgStroke"></line><line x1="591.113" x2="591.113" y1="484.327" y2="499.327" fill="none" stroke="#59000b" stroke-linecap="round" stroke-linejoin="round" stroke-miterlimit="10" stroke-width="6" class="colorStroke153144 svgStroke"></line><line x1="571.113" x2="571.113" y1="484.327" y2="499.327" fill="none" stroke="#59000b" stroke-linecap="round" stroke-linejoin="round" stroke-miterlimit="10" stroke-width="6" class="colorStroke153144 svgStroke"></line><line x1="551.113" x2="551.113" y1="484.327" y2="499.327" fill="none" stroke="#59000b" stroke-linecap="round" stroke-linejoin="round" stroke-miterlimit="10" stroke-width="6" class="colorStroke153144 svgStroke"></line><line x1="531.113" x2="531.113" y1="484.327" y2="499.327" fill="none" stroke="#59000b" stroke-linecap="round" stroke-linejoin="round" stroke-miterlimit="10" stroke-width="6" class="colorStroke153144 svgStroke"></line></g><g fill="#000000" class="color000 svgShape"><line x1="631.113" x2="631.113" y1="444.327" y2="459.327" fill="none" stroke="#59000b" stroke-linecap="round" stroke-linejoin="round" stroke-miterlimit="10" stroke-width="6" class="colorStroke153144 svgStroke"></line><line x1="611.113" x2="611.113" y1="444.327" y2="459.327" fill="none" stroke="#59000b" stroke-linecap="round" stroke-linejoin="round" stroke-miterlimit="10" stroke-width="6" class="colorStroke153144 svgStroke"></line><line x1="591.113" x2="591.113" y1="444.327" y2="459.327" fill="none" stroke="#59000b" stroke-linecap="round" stroke-linejoin="round" stroke-miterlimit="10" stroke-width="6" class="colorStroke153144 svgStroke"></line><line x1="571.113" x2="571.113" y1="444.327" y2="459.327" fill="none" stroke="#59000b" stroke-linecap="round" stroke-linejoin="round" stroke-miterlimit="10" stroke-width="6" class="colorStroke153144 svgStroke"></line><line x1="551.113" x2="551.113" y1="444.327" y2="459.327" fill="none" stroke="#59000b" stroke-linecap="round" stroke-linejoin="round" stroke-miterlimit="10" stroke-width="6" class="colorStroke153144 svgStroke"></line><line x1="531.113" x2="531.113" y1="444.327" y2="459.327" fill="none" stroke="#59000b" stroke-linecap="round" stroke-linejoin="round" stroke-miterlimit="10" stroke-width="6" class="colorStroke153144 svgStroke"></line></g></g><rect width="60.565" height="288" x="333.972" y="412.327" fill="none" stroke="#59000b" stroke-linecap="round" stroke-linejoin="round" stroke-miterlimit="10" stroke-width="6" class="colorStroke153144 svgStroke"></rect><g fill="#000000" class="color000 svgShape"><line x1="351.113" x2="351.113" y1="604.327" y2="619.327" fill="none" stroke="#59000b" stroke-linecap="round" stroke-linejoin="round" stroke-miterlimit="10" stroke-width="6" class="colorStroke153144 svgStroke"></line><line x1="351.113" x2="351.113" y1="624.327" y2="630.327" fill="none" stroke="#59000b" stroke-linecap="round" stroke-linejoin="round" stroke-miterlimit="10" stroke-width="6" opacity=".36" class="colorStroke153144 svgStroke"></line><line x1="364.113" x2="364.113" y1="604.327" y2="619.327" fill="none" stroke="#59000b" stroke-linecap="round" stroke-linejoin="round" stroke-miterlimit="10" stroke-width="6" class="colorStroke153144 svgStroke"></line><line x1="364.113" x2="364.113" y1="624.327" y2="630.327" fill="none" stroke="#59000b" stroke-linecap="round" stroke-linejoin="round" stroke-miterlimit="10" stroke-width="6" opacity=".36" class="colorStroke153144 svgStroke"></line><line x1="377.113" x2="377.113" y1="604.327" y2="619.327" fill="none" stroke="#59000b" stroke-linecap="round" stroke-linejoin="round" stroke-miterlimit="10" stroke-width="6" class="colorStroke153144 svgStroke"></line><line x1="377.113" x2="377.113" y1="624.327" y2="630.327" fill="none" stroke="#59000b" stroke-linecap="round" stroke-linejoin="round" stroke-miterlimit="10" stroke-width="6" opacity=".36" class="colorStroke153144 svgStroke"></line><g fill="#000000" class="color000 svgShape"><line x1="351.113" x2="351.113" y1="560.327" y2="575.327" fill="none" stroke="#59000b" stroke-linecap="round" stroke-linejoin="round" stroke-miterlimit="10" stroke-width="6" class="colorStroke153144 svgStroke"></line><line x1="351.113" x2="351.113" y1="580.327" y2="586.327" fill="none" stroke="#59000b" stroke-linecap="round" stroke-linejoin="round" stroke-miterlimit="10" stroke-width="6" opacity=".36" class="colorStroke153144 svgStroke"></line><line x1="364.113" x2="364.113" y1="560.327" y2="575.327" fill="none" stroke="#59000b" stroke-linecap="round" stroke-linejoin="round" stroke-miterlimit="10" stroke-width="6" class="colorStroke153144 svgStroke"></line><line x1="364.113" x2="364.113" y1="580.327" y2="586.327" fill="none" stroke="#59000b" stroke-linecap="round" stroke-linejoin="round" stroke-miterlimit="10" stroke-width="6" opacity=".36" class="colorStroke153144 svgStroke"></line><g fill="#000000" class="color000 svgShape"><line x1="377.113" x2="377.113" y1="560.327" y2="575.327" fill="none" stroke="#59000b" stroke-linecap="round" stroke-linejoin="round" stroke-miterlimit="10" stroke-width="6" class="colorStroke153144 svgStroke"></line><line x1="377.113" x2="377.113" y1="580.327" y2="586.327" fill="none" stroke="#59000b" stroke-linecap="round" stroke-linejoin="round" stroke-miterlimit="10" stroke-width="6" opacity=".36" class="colorStroke153144 svgStroke"></line></g></g><g fill="#000000" class="color000 svgShape"><line x1="351.113" x2="351.113" y1="516.327" y2="531.327" fill="none" stroke="#59000b" stroke-linecap="round" stroke-linejoin="round" stroke-miterlimit="10" stroke-width="6" class="colorStroke153144 svgStroke"></line><line x1="351.113" x2="351.113" y1="536.327" y2="542.327" fill="none" stroke="#59000b" stroke-linecap="round" stroke-linejoin="round" stroke-miterlimit="10" stroke-width="6" opacity=".36" class="colorStroke153144 svgStroke"></line><line x1="364.113" x2="364.113" y1="516.327" y2="531.327" fill="none" stroke="#59000b" stroke-linecap="round" stroke-linejoin="round" stroke-miterlimit="10" stroke-width="6" class="colorStroke153144 svgStroke"></line><line x1="364.113" x2="364.113" y1="536.327" y2="542.327" fill="none" stroke="#59000b" stroke-linecap="round" stroke-linejoin="round" stroke-miterlimit="10" stroke-width="6" opacity=".36" class="colorStroke153144 svgStroke"></line><g fill="#000000" class="color000 svgShape"><line x1="377.113" x2="377.113" y1="516.327" y2="531.327" fill="none" stroke="#59000b" stroke-linecap="round" stroke-linejoin="round" stroke-miterlimit="10" stroke-width="6" class="colorStroke153144 svgStroke"></line><line x1="377.113" x2="377.113" y1="536.327" y2="542.327" fill="none" stroke="#59000b" stroke-linecap="round" stroke-linejoin="round" stroke-miterlimit="10" stroke-width="6" opacity=".36" class="colorStroke153144 svgStroke"></line></g></g><g fill="#000000" class="color000 svgShape"><line x1="351.113" x2="351.113" y1="472.327" y2="487.327" fill="none" stroke="#59000b" stroke-linecap="round" stroke-linejoin="round" stroke-miterlimit="10" stroke-width="6" class="colorStroke153144 svgStroke"></line><line x1="351.113" x2="351.113" y1="492.327" y2="498.327" fill="none" stroke="#59000b" stroke-linecap="round" stroke-linejoin="round" stroke-miterlimit="10" stroke-width="6" opacity=".36" class="colorStroke153144 svgStroke"></line><line x1="364.113" x2="364.113" y1="472.327" y2="487.327" fill="none" stroke="#59000b" stroke-linecap="round" stroke-linejoin="round" stroke-miterlimit="10" stroke-width="6" class="colorStroke153144 svgStroke"></line><line x1="364.113" x2="364.113" y1="492.327" y2="498.327" fill="none" stroke="#59000b" stroke-linecap="round" stroke-linejoin="round" stroke-miterlimit="10" stroke-width="6" opacity=".36" class="colorStroke153144 svgStroke"></line><g fill="#000000" class="color000 svgShape"><line x1="377.113" x2="377.113" y1="472.327" y2="487.327" fill="none" stroke="#59000b" stroke-linecap="round" stroke-linejoin="round" stroke-miterlimit="10" stroke-width="6" class="colorStroke153144 svgStroke"></line><line x1="377.113" x2="377.113" y1="492.327" y2="498.327" fill="none" stroke="#59000b" stroke-linecap="round" stroke-linejoin="round" stroke-miterlimit="10" stroke-width="6" opacity=".36" class="colorStroke153144 svgStroke"></line></g></g><g fill="#000000" class="color000 svgShape"><line x1="351.113" x2="351.113" y1="428.327" y2="443.327" fill="none" stroke="#59000b" stroke-linecap="round" stroke-linejoin="round" stroke-miterlimit="10" stroke-width="6" class="colorStroke153144 svgStroke"></line><line x1="351.113" x2="351.113" y1="448.327" y2="454.327" fill="none" stroke="#59000b" stroke-linecap="round" stroke-linejoin="round" stroke-miterlimit="10" stroke-width="6" opacity=".36" class="colorStroke153144 svgStroke"></line><line x1="364.113" x2="364.113" y1="428.327" y2="443.327" fill="none" stroke="#59000b" stroke-linecap="round" stroke-linejoin="round" stroke-miterlimit="10" stroke-width="6" class="colorStroke153144 svgStroke"></line><line x1="364.113" x2="364.113" y1="448.327" y2="454.327" fill="none" stroke="#59000b" stroke-linecap="round" stroke-linejoin="round" stroke-miterlimit="10" stroke-width="6" opacity=".36" class="colorStroke153144 svgStroke"></line><g fill="#000000" class="color000 svgShape"><line x1="377.113" x2="377.113" y1="428.327" y2="443.327" fill="none" stroke="#59000b" stroke-linecap="round" stroke-linejoin="round" stroke-miterlimit="10" stroke-width="6" class="colorStroke153144 svgStroke"></line><line x1="377.113" x2="377.113" y1="448.327" y2="454.327" fill="none" stroke="#59000b" stroke-linecap="round" stroke-linejoin="round" stroke-miterlimit="10" stroke-width="6" opacity=".36" class="colorStroke153144 svgStroke"></line></g></g></g><ellipse cx="713.839" cy="559.157" fill="none" stroke="#59000b" stroke-linecap="round" stroke-linejoin="round" stroke-miterlimit="10" stroke-width="6" rx="41" ry="56.852" class="colorStroke153144 svgStroke"></ellipse><line x1="715.411" x2="727.125" y1="592.558" y2="580.844" fill="none" stroke="#59000b" stroke-linecap="round" stroke-linejoin="round" stroke-miterlimit="10" stroke-width="6" class="colorStroke153144 svgStroke"></line><line x1="713.839" x2="701.339" y1="574.715" y2="563.01" fill="none" stroke="#59000b" stroke-linecap="round" stroke-linejoin="round" stroke-miterlimit="10" stroke-width="6" class="colorStroke153144 svgStroke"></line><line x1="715.411" x2="715.411" y1="546.177" y2="667.362" fill="none" stroke="#59000b" stroke-linecap="round" stroke-linejoin="round" stroke-miterlimit="10" stroke-width="6" class="colorStroke153144 svgStroke"></line><line x1="451.613" x2="451.613" y1="187" y2="239.425" fill="none" stroke="#59000b" stroke-linecap="round" stroke-linejoin="round" stroke-miterlimit="10" stroke-width="6" class="colorStroke153144 svgStroke"></line></g><ellipse cx="152.477" cy="573.677" fill="#59000b" rx="19" ry="11.157" class="color153144 svgShape"></ellipse><polygon fill="#ffffff" points="387.091 432.966 230.633 432.966 230.633 398.145 185.766 407.118 230.633 365.391 230.633 286.404 387.091 286.404" class="colorfff svgShape"></polygon><path fill="#ffffff" d="M371.925,432.966H240.8c-8.376,0-15.167-6.79-15.167-15.167v-19.655l-44.868,8.973
	l44.868-41.727V301.57c0-8.376,6.79-15.167,15.167-15.167h131.125c8.376,0,15.167,6.79,15.167,15.167V417.8
	C387.091,426.176,380.301,432.966,371.925,432.966z" class="colorfff svgShape"></path><path fill="none" stroke="#59000b" stroke-linecap="round" stroke-linejoin="round" stroke-miterlimit="10" stroke-width="8" d="
	M371.925,432.966H240.8c-8.376,0-15.167-6.79-15.167-15.167v-19.655l-44.868,8.973l44.868-41.727V301.57
	c0-8.376,6.79-15.167,15.167-15.167h131.125c8.376,0,15.167,6.79,15.167,15.167V417.8
	C387.091,426.176,380.301,432.966,371.925,432.966z" class="colorStroke153144 svgStroke"></path><path fill="#ff1c37" d="M821.966,699.677c-4.077-46.048-38.4-82-80.139-82c-41.739,0-76.062,35.952-80.139,82
	H821.966z" class="coloref2c54 svgShape"></path><path fill="#ff0e2b" d="M765.989,649.004c0-10.707-3.06-20.781-8.445-29.581
	c-5.084-1.139-10.338-1.747-15.717-1.747c-41.739,0-76.062,35.952-80.139,82h74.764
	C754.326,688.387,765.989,669.906,765.989,649.004z" opacity=".3" class="color7eb25b svgShape"></path><path fill="#ff1c37" d="M864.479,699.677c-2.163-24.428-20.371-43.5-42.513-43.5
	c-22.142,0-40.35,19.072-42.513,43.5H864.479z" class="coloref2c54 svgShape"></path><path fill="#ff0e2b" d="M834.784,672.796c0-5.68-1.623-11.024-4.48-15.692
	c-2.697-0.604-5.484-0.927-8.338-0.927c-22.142,0-40.35,19.072-42.513,43.5h39.662C828.597,693.688,834.784,683.884,834.784,672.796
	z" opacity=".3" class="color7eb25b svgShape"></path><line x1="745.688" x2="745.688" y1="648.094" y2="699.677" fill="none" stroke="#59000b" stroke-linecap="round" stroke-linejoin="round" stroke-miterlimit="10" stroke-width="8" class="colorStroke153144 svgStroke"></line><line x1="718.688" x2="745.688" y1="656.177" y2="672.927" fill="none" stroke="#59000b" stroke-linecap="round" stroke-linejoin="round" stroke-miterlimit="10" stroke-width="8" class="colorStroke153144 svgStroke"></line><line x1="746.188" x2="767.397" y1="691.302" y2="673.885" fill="none" stroke="#59000b" stroke-linecap="round" stroke-linejoin="round" stroke-miterlimit="10" stroke-width="8" class="colorStroke153144 svgStroke"></line><ellipse cx="787.688" cy="419.677" fill="#ff1c37" rx="75" ry="107" class="coloref2c54 svgShape"></ellipse><path fill="#ff0e2b" d="M712.688,419.677c0,23.019,5.096,44.34,13.765,61.793
	c7.754,4.36,16.201,6.755,25.041,6.755c37.733,0,68.322-43.64,68.322-97.472c0-31.805-10.679-60.049-27.199-77.84
	c-1.63-0.151-3.272-0.236-4.928-0.236C746.267,312.677,712.688,360.582,712.688,419.677z" opacity=".3" class="color7eb25b svgShape"></path><path fill="none" stroke="#59000b" stroke-linecap="round" stroke-linejoin="round" stroke-miterlimit="10" stroke-width="8" d="
	M871.333,699.677H237.977c-8.745,0-15.833-7.089-15.833-15.833v0c0-8.745,7.089-15.833,15.833-15.833h20.167
	c6.996,0,12.667-5.671,12.667-12.667v0c0-6.996-5.671-12.667-12.667-12.667h-72.167c-7.456,0-13.5-6.044-13.5-13.5l0,0
	c0-7.456,6.044-13.5,13.5-13.5h15.167c10.862,0,19.667-8.805,19.667-19.667l0,0c0-10.862-8.805-19.667-19.667-19.667h-48.667" class="colorStroke153144 svgStroke"></path><line x1="922.569" x2="893.333" y1="699.677" y2="699.677" fill="none" stroke="#59000b" stroke-linecap="round" stroke-linejoin="round" stroke-miterlimit="10" stroke-width="8" class="colorStroke153144 svgStroke"></line><path fill="#ff1c37" d="M116.917,435.481L116.917,435.481c19.082-20.94,52.037-20.94,71.119,0l0,0
	c13.348,14.648,16.348,35.982,7.558,53.743l-43.117,87.12l-43.117-87.12C100.569,471.463,103.57,450.129,116.917,435.481z" class="coloref2c54 svgShape"></path><path fill="#ff1c37" d="M116.917,454.348L116.917,454.348c19.082-20.94,52.037-20.94,71.119,0l0,0
	c6.027,6.614,9.936,14.593,11.611,22.989c2.959-14.765-1.142-30.367-11.611-41.856l0,0c-19.082-20.94-52.037-20.94-71.118,0l0,0
	c-10.469,11.489-14.57,27.091-11.611,41.856C106.981,468.941,110.89,460.962,116.917,454.348z" class="coloref2c54 svgShape"></path><path fill="none" stroke="#59000b" stroke-linecap="round" stroke-linejoin="round" stroke-miterlimit="10" stroke-width="8" d="
	M116.917,435.481L116.917,435.481c19.082-20.94,52.037-20.94,71.119,0l0,0c13.348,14.648,16.348,35.982,7.558,53.743l-43.117,87.12
	l-43.117-87.12C100.569,471.463,103.57,450.129,116.917,435.481z" class="colorStroke153144 svgStroke"></path><circle cx="152.477" cy="467.725" r="23.29" fill="#ffffff" class="colorfff svgShape"></circle><circle cx="152.477" cy="467.725" r="23.29" fill="none" stroke="#59000b" stroke-linecap="round" stroke-linejoin="round" stroke-miterlimit="10" stroke-width="8" class="colorStroke153144 svgStroke"></circle><ellipse cx="784.067" cy="350.667" fill="none" stroke="#59000b" stroke-linecap="round" stroke-linejoin="round" stroke-miterlimit="10" stroke-width="6" rx="7.621" ry="17.4" class="colorStroke153144 svgStroke"></ellipse><ellipse cx="753.979" cy="408.302" fill="none" stroke="#59000b" stroke-linecap="round" stroke-linejoin="round" stroke-miterlimit="10" stroke-width="6" rx="7.621" ry="17.4" transform="rotate(-44.129 753.973 408.29)" class="colorStroke153144 svgStroke"></ellipse><ellipse cx="692.218" cy="507.927" fill="none" stroke="#59000b" stroke-linecap="round" stroke-linejoin="round" stroke-miterlimit="10" stroke-width="6" rx="17.4" ry="7.621" transform="rotate(-59.208 692.266 507.949)" class="colorStroke153144 svgStroke"></ellipse><ellipse cx="845.451" cy="607.792" fill="none" stroke="#59000b" stroke-linecap="round" stroke-linejoin="round" stroke-miterlimit="10" stroke-width="6" rx="7.621" ry="17.4" transform="translate(-.858 1.196)" class="colorStroke153144 svgStroke"></ellipse><ellipse cx="821.675" cy="393.974" fill="none" stroke="#59000b" stroke-linecap="round" stroke-linejoin="round" stroke-miterlimit="10" stroke-width="6" rx="17.4" ry="7.621" transform="rotate(-55.43 821.671 393.99)" class="colorStroke153144 svgStroke"></ellipse><ellipse cx="818.344" cy="472.766" fill="none" stroke="#59000b" stroke-linecap="round" stroke-linejoin="round" stroke-miterlimit="10" stroke-width="6" rx="13.481" ry="5.904" transform="rotate(-55.43 818.339 472.78)" class="colorStroke153144 svgStroke"></ellipse><line x1="787.688" x2="810.242" y1="460.677" y2="440.677" fill="none" stroke="#59000b" stroke-linecap="round" stroke-linejoin="round" stroke-miterlimit="10" stroke-width="8" class="colorStroke153144 svgStroke"></line><line x1="787.688" x2="759.688" y1="494.677" y2="472.766" fill="none" stroke="#59000b" stroke-linecap="round" stroke-linejoin="round" stroke-miterlimit="10" stroke-width="8" class="colorStroke153144 svgStroke"></line><polyline fill="none" stroke="#ef2c54" stroke-linecap="round" stroke-linejoin="round" stroke-miterlimit="10" stroke-width="5" points="282.011 381.248 261.527 381.248 261.527 333.819 245.027 333.819 254.914 314.735"></polyline><path fill="#59000b" d="M266.527,376.248v-47.429h-13.279l7.297-14.084h21.466v61.514H266.527z" class="color153144 svgShape"></path><polyline fill="none" stroke="#ef2c54" stroke-linecap="round" stroke-linejoin="round" stroke-miterlimit="10" stroke-width="5" points="362.737 381.248 339.062 381.248 326.374 363.773 326.374 381.248 299.617 381.248 299.617 314.141"></polyline><path fill="#59000b" d="M304.617,376.248V314.14h16.757v28.212l19.642-28.212h19.727l-22.951,30.291
		l24.945,31.817H341.61l-20.236-27.872v27.872H304.617z" class="color153144 svgShape"></path><g fill="#000000" class="color000 svgShape"><path fill="#ff1c37" d="M251.925 396.345h7.227v1.357h-5.557v4.31h4.512v1.357h-4.512v5.759h-1.669V396.345zM266.963 409.257c-3.595 0-6.419-2.696-6.419-6.529 0-3.833 2.825-6.53 6.419-6.53 3.613 0 6.419 2.696 6.419 6.53C273.383 406.561 270.577 409.257 266.963 409.257zM266.963 407.809c2.696 0 4.714-1.963 4.714-5.081 0-3.136-2.018-5.081-4.714-5.081s-4.713 1.944-4.713 5.081C262.25 405.846 264.267 407.809 266.963 407.809zM277.25 396.345v11.426h4.475v1.357h-6.145v-12.784H277.25zM285.172 396.345v11.426h4.475v1.357h-6.145v-12.784H285.172zM297.22 409.257c-3.595 0-6.419-2.696-6.419-6.529 0-3.833 2.825-6.53 6.419-6.53 3.613 0 6.419 2.696 6.419 6.53C303.639 406.561 300.833 409.257 297.22 409.257zM297.22 407.809c2.696 0 4.714-1.963 4.714-5.081 0-3.136-2.018-5.081-4.714-5.081s-4.714 1.944-4.714 5.081C292.506 405.846 294.523 407.809 297.22 407.809zM304.847 396.345h1.779l2.788 10.839 3.082-10.839h1.871l2.935 10.803 2.806-10.803h1.797l-3.705 12.784h-1.871l-2.971-10.29-3.082 10.29-1.852.019L304.847 396.345zM330.612 397.703h-5.209v4.273h4.659v1.375h-4.659v4.402h5.209v1.375h-6.878v-12.802h6.878V397.703zM337.269 396.345c3.008 0 4.438 1.669 4.438 3.76 0 1.632-.899 3.191-3.044 3.668l3.209 5.355h-1.999l-3.045-5.227h-2.018v5.227h-1.669v-12.784H337.269zM337.269 397.721h-2.458v4.842h2.458c1.889 0 2.714-1.027 2.714-2.458C339.983 398.656 339.176 397.721 337.269 397.721zM348.344 409.257c-2.568 0-4.384-1.431-4.42-3.54h1.779c.11 1.064.862 2.128 2.641 2.128 1.614 0 2.567-.917 2.567-2.128 0-3.448-6.915-1.247-6.915-5.998 0-2.109 1.706-3.54 4.237-3.54 2.439 0 4.035 1.339 4.237 3.283h-1.834c-.11-.862-.917-1.834-2.476-1.853-1.375-.037-2.458.679-2.458 2.054 0 3.301 6.896 1.247 6.896 5.979C352.599 407.46 351.114 409.257 348.344 409.257z" class="coloref2c54 svgShape"></path></g><line x1="787.688" x2="787.688" y1="419.677" y2="699.677" fill="none" stroke="#59000b" stroke-linecap="round" stroke-linejoin="round" stroke-miterlimit="10" stroke-width="8" class="colorStroke153144 svgStroke"></line><g fill="#000000" class="color000 svgShape"><path fill="#ffffff" d="M469.655,501.01c0,0-12.133,16.833-13.633,18.333s-40.835,7.332-40.835,7.332
		l-4.422,14.668c0,0,48.757-3.5,53.257-8s17-20.667,17-20.667L469.655,501.01z" class="colorfff svgShape"></path><path fill="none" stroke="#59000b" stroke-linecap="round" stroke-linejoin="round" stroke-miterlimit="10" stroke-width="8" d="
		M469.655,501.01c0,0-12.133,16.833-13.633,18.333s-45.257,7.332-45.257,7.332l-4.422,14.668c0,0,53.179-3.5,57.679-8
		s17-20.667,17-20.667L469.655,501.01z" class="colorStroke153144 svgStroke"></path><circle cx="563.105" cy="640.01" r="59.667" fill="#ffffff" class="colorfff svgShape"></circle><circle cx="381.022" cy="640.01" r="59.667" fill="#ffffff" class="colorfff svgShape"></circle><circle cx="381.022" cy="640.01" r="59.667" fill="none" stroke="#59000b" stroke-linecap="round" stroke-linejoin="round" stroke-miterlimit="10" stroke-width="8" class="colorStroke153144 svgStroke"></circle><path fill="#ff8997" d="M381.022,679.677c-21.873,0-39.667-17.795-39.667-39.667
		s17.794-39.666,39.667-39.666c21.872,0,39.667,17.794,39.667,39.666S402.894,679.677,381.022,679.677z" class="color90caf8 svgShape"></path><path fill="none" stroke="#59000b" stroke-linecap="round" stroke-linejoin="round" stroke-miterlimit="10" stroke-width="6" d="M346.096 658.803c-3.024-5.597-4.741-11.998-4.741-18.793 0-13.254 6.534-25.01 16.551-32.217M404.144 621.443c4.093 5.086 6.544 11.546 6.544 18.567 0 3.664-.667 7.174-1.887 10.416" class="colorStroke153144 svgStroke"></path><line x1="381.022" x2="410.765" y1="640.01" y2="541.344" fill="none" stroke="#59000b" stroke-linecap="round" stroke-linejoin="round" stroke-miterlimit="10" stroke-width="8" class="colorStroke153144 svgStroke"></line><path fill="#ff1c37" d="M381.022,647.01c-3.794,0-7-3.205-7-7.001c0-3.794,3.206-6.999,7-6.999
		s7,3.205,7,6.999C388.022,643.805,384.816,647.01,381.022,647.01z" class="coloref2c54 svgShape"></path><path fill="none" stroke="#59000b" stroke-linecap="round" stroke-linejoin="round" stroke-miterlimit="10" stroke-width="8" d="
		M381.022,647.01c-3.794,0-7-3.205-7-7.001c0-3.794,3.206-6.999,7-6.999s7,3.205,7,6.999
		C388.022,643.805,384.816,647.01,381.022,647.01z" class="colorStroke153144 svgStroke"></path><circle cx="563.105" cy="640.01" r="59.667" fill="none" stroke="#59000b" stroke-linecap="round" stroke-linejoin="round" stroke-miterlimit="10" stroke-width="8" class="colorStroke153144 svgStroke"></circle><path fill="#ff8997" d="M563.105,679.677c-21.872,0-39.667-17.795-39.667-39.667
		s17.795-39.666,39.667-39.666s39.666,17.794,39.666,39.666S584.977,679.677,563.105,679.677z" class="color90caf8 svgShape"></path><path fill="none" stroke="#59000b" stroke-linecap="round" stroke-linejoin="round" stroke-miterlimit="10" stroke-width="6" d="M570.472 601.03c18.365 3.463 32.3 19.625 32.3 38.98M557.595 669.164c-7.509-1.416-14.028-5.671-18.395-11.603" class="colorStroke153144 svgStroke"></path><polygon fill="none" stroke="#59000b" stroke-linecap="round" stroke-linejoin="round" stroke-miterlimit="10" stroke-width="8" points="409.695 559.776 464.598 642.004 563.47 641.905 508.567 559.677" class="colorStroke153144 svgStroke"></polygon><circle cx="468.638" cy="462.063" r="26.25" fill="#ffffff" class="colorfff svgShape"></circle><line x1="481.337" x2="461.942" y1="451.438" y2="488.313" fill="none" stroke="#59000b" stroke-linecap="round" stroke-linejoin="round" stroke-miterlimit="10" stroke-width="8" class="colorStroke153144 svgStroke"></line><circle cx="468.638" cy="462.063" r="26.25" fill="none" stroke="#59000b" stroke-linecap="round" stroke-linejoin="round" stroke-miterlimit="10" stroke-width="8" class="colorStroke153144 svgStroke"></circle><path fill="#f7001d" d="M502.056,458.063c2.09-9.628,0.815-18.383-4.287-24.473
		c-10.927-13.042-36.074-9.395-57.25,8.448c-5.774,4.865-10.722,10.328-14.718,16.025H502.056z" class="colorce2951 svgShape"></path><path fill="#d20019" d="M497.769,433.59c-6.69-7.985-18.712-9.703-31.888-5.749
		c7.053,0.366,13.078,2.903,17.138,7.749c4.746,5.665,6.177,13.638,4.671,22.473h14.366
		C504.146,448.435,502.871,439.68,497.769,433.59z" class="colorad254c svgShape"></path><path fill="none" stroke="#59000b" stroke-linecap="round" stroke-linejoin="round" stroke-miterlimit="10" stroke-width="8" d="
		M502.056,458.063c2.09-9.628,0.815-18.383-4.287-24.473c-10.927-13.042-36.074-9.395-57.25,8.448
		c-5.774,4.865-10.722,10.328-14.718,16.025H502.056z" class="colorStroke153144 svgStroke"></path><path fill="#ffffff" d="M479.079,573.677c0,0-7.557,6.167-10.39,9c-2.833,2.833-1.5,55.333-1.5,55.333
		h14.167c0,0,4.833-41.833,6.667-43.667c1.833-1.833,12.112-8.667,12.112-8.667L479.079,573.677z" class="colorfff svgShape"></path><path fill="none" stroke="#59000b" stroke-linecap="round" stroke-linejoin="round" stroke-miterlimit="10" stroke-width="8" d="
		M479.079,573.677c0,0-7.557,6.167-10.39,9c-2.833,2.833-1.5,55.333-1.5,55.333h14.167c0,0,4.833-41.833,6.667-43.667
		c1.833-1.833,12.112-8.667,12.112-8.667L479.079,573.677z" class="colorStroke153144 svgStroke"></path><path fill="#ff8997" d="M467.188,500.677l13.167,17l6.228-7.333l21.68,36.667l49.333,3
		c0,0-31.907-51.667-47.241-63c-15.333-11.333-23.443-6.075-26.851-2.667C480.096,487.751,467.188,500.677,467.188,500.677z" class="color90caf8 svgShape"></path><path fill="#ff5d70" d="M526.208,548.101c-2.838-29.99-19.983-54.654-42.902-63.56
		c-3.673,3.674-16.118,16.135-16.118,16.135l13.167,17l6.228-7.333l21.68,36.667L526.208,548.101z" class="color74bae8 svgShape"></path><path fill="none" stroke="#59000b" stroke-linecap="round" stroke-linejoin="round" stroke-miterlimit="10" stroke-width="8" d="
		M467.188,500.677l13.167,17l6.228-7.333l21.68,39.667h49.333c0,0-31.907-51.667-47.241-63
		c-15.333-11.333-23.443-6.075-26.851-2.667C480.096,487.751,467.188,500.677,467.188,500.677z" class="colorStroke153144 svgStroke"></path><path fill="#59000b" d="M487.471,654.177h-33.566v-5.53c0-4.865,3.77-8.897,8.623-9.225l24.943-1.412
		V654.177z" class="color153144 svgShape"></path><path fill="none" stroke="#59000b" stroke-linecap="round" stroke-linejoin="round" stroke-miterlimit="10" stroke-width="8" d="
		M487.471,654.177h-33.566v-5.53c0-4.865,3.77-8.897,8.623-9.225l24.943-1.412V654.177z" class="colorStroke153144 svgStroke"></path><path fill="#f7001d" d="M476.885,572.01l23.248,17.667c0,0,49.888-17,57.462-39.667c-38,0-49.333,0-49.333,0
		L476.885,572.01z" class="colorce2951 svgShape"></path><path fill="#d20019" d="M525.255,550.01c-12.572,0-16.993,0-16.993,0l-31.377,22l5.617,4.268
		c1.219-0.188,2.443-0.397,3.675-0.645C505.803,571.685,521.058,561.202,525.255,550.01z" opacity=".63" class="colorad254c svgShape"></path><path fill="none" stroke="#59000b" stroke-linecap="round" stroke-linejoin="round" stroke-miterlimit="10" stroke-width="8" d="
		M476.885,572.01l23.248,17.667c0,0,49.888-17,57.462-39.667c-38,0-49.333,0-49.333,0L476.885,572.01z" class="colorStroke153144 svgStroke"></path><path fill="#ff1c37" d="M563.471,649.004c-3.794,0-7-3.205-7-7.001c0-3.794,3.206-6.999,7-6.999
		s7,3.205,7,6.999C570.47,645.799,567.265,649.004,563.471,649.004z" class="coloref2c54 svgShape"></path><path fill="none" stroke="#59000b" stroke-linecap="round" stroke-linejoin="round" stroke-miterlimit="10" stroke-width="8" d="
		M563.471,649.004c-3.794,0-7-3.205-7-7.001c0-3.794,3.206-6.999,7-6.999s7,3.205,7,6.999
		C570.47,645.799,567.265,649.004,563.471,649.004z" class="colorStroke153144 svgStroke"></path><line x1="549.75" x2="557.596" y1="435.236" y2="435.236" fill="none" stroke="#59000b" stroke-linecap="round" stroke-linejoin="round" stroke-miterlimit="10" stroke-width="8" class="colorStroke153144 svgStroke"></line><line x1="487.471" x2="536.667" y1="435.236" y2="435.236" fill="none" stroke="#59000b" stroke-linecap="round" stroke-linejoin="round" stroke-miterlimit="10" stroke-width="8" class="colorStroke153144 svgStroke"></line><line x1="588.667" x2="661.688" y1="656.177" y2="656.177" fill="none" stroke="#59000b" stroke-linecap="round" stroke-linejoin="round" stroke-miterlimit="10" stroke-width="8" class="colorStroke153144 svgStroke"></line><line x1="675.314" x2="682.332" y1="617.677" y2="617.677" fill="none" stroke="#59000b" stroke-linecap="round" stroke-linejoin="round" stroke-miterlimit="10" stroke-width="8" class="colorStroke153144 svgStroke"></line><line x1="634.186" x2="661.688" y1="617.677" y2="617.677" fill="none" stroke="#59000b" stroke-linecap="round" stroke-linejoin="round" stroke-miterlimit="10" stroke-width="8" class="colorStroke153144 svgStroke"></line><line x1="551.311" x2="589.633" y1="491.015" y2="491.015" fill="none" stroke="#59000b" stroke-linecap="round" stroke-linejoin="round" stroke-miterlimit="10" stroke-width="8" class="colorStroke153144 svgStroke"></line><line x1="346.096" x2="312.599" y1="576.344" y2="576.344" fill="none" stroke="#59000b" stroke-linecap="round" stroke-linejoin="round" stroke-miterlimit="10" stroke-width="8" class="colorStroke153144 svgStroke"></line><line x1="374.658" x2="357.909" y1="559.677" y2="559.677" fill="none" stroke="#59000b" stroke-linecap="round" stroke-linejoin="round" stroke-miterlimit="10" stroke-width="8" class="colorStroke153144 svgStroke"></line></g></svg></g></svg>