<svg id="SvgjsSvg1174" width="360" height="360" xmlns="http://www.w3.org/2000/svg" version="1.1" xmlns:xlink="http://www.w3.org/1999/xlink" xmlns:svgjs="http://svgjs.com/svgjs"><defs id="SvgjsDefs1175"></defs><g id="SvgjsG1176" transform="matrix(1,0,0,1,0,0)"><svg xmlns="http://www.w3.org/2000/svg" data-name="Layer 1" viewBox="0 0 700 550" width="360" height="360"><path fill="#bb0b20" d="M271.79864,479.76059c-16.25-5.08-30.83-10.27-48.37-20.12-18.09-10.16-98.45-58.51-108.9-142.19a159.61541,159.61541,0,0,1,6.66-68.16c3.23-9.47,9.93-28.49,26.84-47.3,20.7-23.04,44.32-31.97,58.17-37.02,29.14-10.63,53.58-10.07,65.22-9.69,12.56.41,34.73,1.33,59.93,12.34,16.44,7.18,26.66,15.37,41.72,27.61,23.86,19.41,27,27.49,68.74,67.57,11.46,11,20.88,19.67,35.26,28.21,9.97,5.92,18.03,9.23,32.9,15.27,36.55,14.85,46.95657,17.85676,58.91657,26.21676,23.26,16.27,21.75343,34.01324,22.75343,37.83324a75.12694,75.12694,0,0,1,1.77,29.97c-3.05,20.07-13.86,33.19-20.57,41.13a113.09822,113.09822,0,0,1-32.9,26.44,210.24676,210.24676,0,0,1-26.96,11.89Z" class="colorffe3cb svgShape"></path><path fill="#bb0b20" d="M220.20752,465.575c-24.00342-13.48437-103.1416-64.04395-113.68018-148.48437a167.34063,167.34063,0,0,1,6.95948-71.21778c2.99609-8.78906,10.01318-29.37109,28.05029-49.4414,22.0874-24.57618,47.26465-33.75977,60.791-38.69336a175.06234,175.06234,0,0,1,68.12255-10.12891c11.60157.37793,35.74268,1.16309,62.61084,12.89453l-.40039.916c-26.69189-11.6543-49.81836-12.40625-62.24267-12.81055a174.04619,174.04619,0,0,0-67.74756,10.06836c-13.44434,4.90332-38.46973,14.03125-60.38965,38.42187-17.90088,19.91895-24.87158,40.36524-27.84814,49.09571a166.29429,166.29429,0,0,0-6.91358,70.77246C118,400.94316,196.79688,451.27715,220.69775,464.70391Z" class="colorffe3cb svgShape"></path><polygon fill="#f73c52" points="478.588 199.328 479.538 173.629 503.24 174.031 507.955 172.062 520.772 160.4 518.893 193.885 505.552 204.599 483.039 204.468 478.257 204.803 478.588 199.328" class="colorf73c4f svgShape"></polygon><path fill="#b02334" d="M503.67871 176.04912c.102 2.14136.09448 4.27734.0704 6.4126-.01269 2.1355-.10382 4.26733-.19528 6.39941-.11517 2.13062-.23242 4.26123-.42694 6.38794l-.29532 3.19019c-.135 1.06152-.23556 2.12475-.40081 3.18481-.06122-1.071-.05784-2.13916-.08881-3.20874l.01666-3.20361c.01346-2.13574.10422-4.26758.197-6.39942.11655-2.13061.2334-4.26123.42868-6.38793C503.16821 180.29692 503.36871 178.17046 503.67871 176.04912zM508.2934 174.0313c.15759 4.15869.01281 8.3-.20606 12.43725-.249 4.1355-.57388 8.26685-1.20383 12.38062-.16-4.15869-.01489-8.3.20606-12.43726C507.34067 182.27642 507.66583 178.14531 508.2934 174.0313z" class="colorb02336 svgShape"></path><path fill="#f97a89" d="M496.71463,217.096s1.92508-7.80726,2.78067-7.91421c0,0-7.37947-9.1976-6.41693-9.94624s7.37947,4.70574,7.37947,4.70574,2.35288.53475,1.92508-2.99456c0,0-5.59594-6.09609-4.66957-7.16558s4.66957,3.20847,7.77109,5.56134c0,0,.42779-.28519,0-2.70937s-2.78067-4.4562-2.88762-5.31179.59416-1.71118,3.07775,0a26.35332,26.35332,0,0,1,5.05036,5.31179,12.48556,12.48556,0,0,0-1.60423-7.77161c-2.24593-3.42237,1.39034-2.67372,2.78067-.74865s2.24593,6.02479,2.45982,8.52026-7.37947,13.19036-7.37947,13.19036l.713,9.6967-5.5257,8.80545Z" class="colorf9977a svgShape"></path><path fill="#d86c79" d="M420.28185,195.56366l-20.962,7.70032L385.06,253.03085l1.56858,16.54142h17.11182l-.2852-9.5541L407.448,255.455l.1426,14.11725H471.6173l-.99819-41.06836s19.2508,21.96017,29.09009,16.11363c0,0,11.26528-9.8393,7.98552-25.09733,0,0-5.27615,9.2689-10.98009-2.42418l-4.56315,6.13174s-7.70032-2.70937-16.25622-21.60367c0,0-19.536-4.49185-22.81576-6.203Z" class="color6c7fd8 svgShape"></path><path fill="#221d1e" d="M359.29883,270.16582a.59382.59382,0,0,1-.58692-.50586c-3.27929-21.96777,13.35254-52.18848,13.52051-52.49121a.59453.59453,0,1,1,1.03906.57813c-.167.29882-16.60449,30.17187-13.38378,51.7373a.59568.59568,0,0,1-.5.67578A.68974.68974,0,0,1,359.29883,270.16582Z" class="color1e1d22 svgShape"></path><path fill="#221d1e" d="M373.24707,221.76055a4.99994,4.99994,0,0,1-3.88574-8.14356l9.666-11.957a5.00037,5.00037,0,0,1,7.77735,6.28711l-9.666,11.957A4.99237,4.99237,0,0,1,373.24707,221.76055Z" class="color1e1d22 svgShape"></path><polygon fill="#ff5569" points="429.972 202.065 434.542 196.277 438.604 202.065 434.542 206.972 429.972 202.065" class="colorffba55 svgShape"></polygon><polygon fill="#ff5569" points="432.964 205.278 427.412 215.1 426.414 269.572 436.681 269.572 438.604 215.527 435.944 205.278 432.964 205.278" class="colorffba55 svgShape"></polygon><path fill="#f9c0c7" d="M480.43139,173.64374l2.826-3.26135s19.69846.58506,21.07185.73282c0,0,10.79108-10.50758,13.76839-11.90535l1.81256,1.97393L507.9548,172.06152l-4.71453,1.96977Z" class="colorf9e0c0 svgShape"></path><path fill="#f97a89" d="M419.28366,151.96407l.66385,9.60853a55.201,55.201,0,0,1-.59216,11.66318c-.6989,4.85985.61486,9.11064,3.49435,11.17946a8.16561,8.16561,0,0,0,4.56208,1.45166v9.66577h19.89251V172.92623s8.12812-1.49732,3.42237-9.51856a34.57307,34.57307,0,0,1-4.81275-15.40063l-8.76977-6.63086Z" class="colorf9977a svgShape"></path><path fill="#221d1e" d="M439.1748 156.09941a.59464.59464 0 01-.29394-.07812c-2.66895-1.52539-5.71289-.00391-5.74316.01269a.59378.59378 0 01-.54395-1.05566c.14648-.07715 3.63965-1.83984 6.877.01172a.59382.59382 0 01-.2959 1.10937zM421.10254 156.09941a.59369.59369 0 01-.27344-1.12109c.14649-.07715 3.63867-1.83984 6.87793.01172a.594.594 0 01-.58984 1.03125c-2.6836-1.5332-5.71289-.00391-5.74317.01172A.58038.58038 0 01421.10254 156.09941zM423.66857 163.9068a1.78355 1.78355 0 000-3.565 1.78355 1.78355 0 000 3.565zM435.86074 163.79986a1.78355 1.78355 0 000-3.565 1.78355 1.78355 0 000 3.565z" class="color1e1d22 svgShape"></path><path fill="#dd5e6d" d="M429.59418,160.92314c-.51145,1.76954-1.17212,3.42286-1.66141,5.104a10.21644,10.21644,0,0,0-.48486,2.4956,2.32555,2.32555,0,0,0,.22235,1.144,1.7792,1.7792,0,0,0,.96136.78808,1.67456,1.67456,0,0,1-1.34985-.48779,2.495,2.495,0,0,1-.61221-1.38843,6.98123,6.98123,0,0,1,.30435-2.83325,13.8507,13.8507,0,0,1,1.06814-2.55054A11.78648,11.78648,0,0,1,429.59418,160.92314Z" class="colordd765e svgShape"></path><ellipse cx="432.324" cy="174.584" fill="#dd2238" rx="3.415" ry="2.727" class="colordd2f22 svgShape"></ellipse><path fill="#dd5e6d" d="M427.41178,185.867s6.41693-.32775,9.51844-3.26539c0,0-3.9571,7.86419-9.51844,8.93368Z" class="colordd765e svgShape"></path><path fill="#221d1e" d="M414.57791,149.07656s.107-4.3849,7.80727-6.31,9.1976-6.203,13.636-5.0266a14.58387,14.58387,0,0,1,7.219,5.0266s13.93911-2.13261,7.18345,20.10957c0,0-5.04448,5.879-5.57922.63851s-1.71118-14.2242-4.5988-16.57707-7.37947,0-9.09065,1.28338-12.40607,8.87676-13.47556,8.23506S412.332,154.531,414.57791,149.07656Z" class="color1e1d22 svgShape"></path><polygon fill="#d86c79" points="426.984 189.717 420.282 195.564 428.125 204.405 434.542 196.277 426.984 189.717" class="color6c7fd8 svgShape"></polygon><polygon fill="#d86c79" points="440.246 204.405 434.542 196.277 447.376 188.862 453.08 195.421 440.246 204.405" class="color6c7fd8 svgShape"></polygon><path fill="#820615" d="M407.448 255.45513c-.53717-3.68311-1.00046-7.37036-1.46991-11.0564l-1.38648-11.05566-1.42431-11.044q-.36773-2.75976-.82141-5.50464c-.13266-.91894-.31156-1.82788-.46546-2.74438-.16531-.91333-.38708-1.81323-.56418-2.72925a74.76972 74.76972 0 012.61072 10.85742c.66507 3.66431 1.18567 7.35083 1.65637 11.04126.44376 3.6936.85395 7.39111 1.15619 11.09863C407.05026 248.02446 407.32159 251.73442 407.448 255.45513zM403.45523 260.01812a37.99081 37.99081 0 00-3.11343-2.83692 27.431 27.431 0 00-3.39841-2.36548 19.428 19.428 0 00-3.73621-1.72 21.54421 21.54421 0 00-4.0831-.92041 11.53254 11.53254 0 014.29316.1687 13.98178 13.98178 0 014.03082 1.60913A16.43579 16.43579 0 01403.45523 260.01812zM470.61911 228.504a43.70826 43.70826 0 01-.82123-7.05347 44.16752 44.16752 0 01.24887-7.12354 27.72243 27.72243 0 011.69254-6.95678 17.22223 17.22223 0 011.68088-3.17945 10.79126 10.79126 0 012.47509-2.56665 12.45935 12.45935 0 00-2.059 2.82569 17.00953 17.00953 0 00-1.37475 3.185 36.379 36.379 0 00-1.42267 6.8125c-.28769 2.31421-.40744 4.6521-.47531 6.99634-.036 1.17261-.03659 2.34741-.01608 3.523C470.53751 226.14482 470.58487 227.32085 470.61911 228.504zM452.19263 233.388a35.40933 35.40933 0 015.99148-2.00025 35.01261 35.01261 0 016.232-1.03 34.98915 34.98915 0 01-5.99149 2A35.40748 35.40748 0 01452.19263 233.388zM482.16959 233.388a19.75324 19.75324 0 011.4967-3.38574 22.07716 22.07716 0 012.11969-3.07178 15.28339 15.28339 0 012.77548-2.56055 12.18465 12.18465 0 013.46475-1.62524l1.086-.32373-.51623 1.03344c-1.09873 2.19971-2.08777 4.48145-2.96866 6.78418a28.19222 28.19222 0 00-1.10913 3.52442 9.50893 9.50893 0 00-.35947 3.66235 8.68851 8.68851 0 01-.12533-3.75561 28.16777 28.16777 0 01.86114-3.679 46.2415 46.2415 0 012.81238-6.9895l.56964.70947a11.74662 11.74662 0 00-3.1897 1.4397 17.789 17.789 0 00-2.7352 2.28979 22.52616 22.52616 0 00-2.27514 2.81861A26.402 26.402 0 00482.16959 233.388zM495.21735 227.50566a45.95461 45.95461 0 001.59652 6.55664 20.48409 20.48409 0 001.33991 3.021 15.77609 15.77609 0 002.017 2.68579 7.89279 7.89279 0 01-2.66751-2.25464 12.3351 12.3351 0 01-1.63337-3.12378 15.499 15.499 0 01-.735-3.41748A12.75684 12.75684 0 01495.21735 227.50566zM475.89526 220.94609a6.41314 6.41314 0 011.1684-1.87671 8.525 8.525 0 011.66626-1.478 7.04671 7.04671 0 012.06042-.91529 4.58 4.58 0 012.23484-.00781 16.203 16.203 0 00-1.977.74439 16.65376 16.65376 0 00-1.76816 1.01294C478.136 219.17949 477.0741 220.055 475.89526 220.94609zM420.28186 195.56377c2.76663 2.81177 5.45371 5.69409 8.12711 8.58862l-.5824.01685c1.02948-1.38623 2.09762-2.742 3.15564-4.10571l3.17761-4.08814.39594-.50952.38418.53149c.9697 1.34131 1.902 2.70874 2.84317 4.07007l2.82095 4.0857-.60946-.10718c2.13913-1.49707 4.33484-2.91333 6.50177-4.37061 2.17139-1.45093 4.3714-2.86108 6.58313-4.25439-2.06619 1.60132-4.14411 3.18579-6.25064 4.72949-2.111 1.53711-4.19321 3.11548-6.332 4.613l-.35566.249-.25408-.3562-2.88291-4.04224c-.96014-1.34814-1.92908-2.68994-2.86066-4.05786l.77991.022-3.23919 4.0398c-1.08094 1.34546-2.15174 2.69922-3.26117 4.02222l-.29609.353-.28659-.33642C425.28528 201.65752 422.74377 198.6458 420.28186 195.56377z" class="color065082 svgShape"></path><rect width="138.862" height="195.578" x="359.282" y="283.803" fill="#d64b5c" class="colord6694b svgShape"></rect><rect width="84.191" height="142.049" x="386.618" y="310.568" fill="#935058" class="color935b50 svgShape"></rect><path fill="#935058" d="M483.52734,465.51055H373.89941V297.67461H483.52734Zm-107.62793-2H481.52734V299.67461H375.89941Z" class="color935b50 svgShape"></path><rect width="179.16" height="17.165" x="339.133" y="266.638" fill="#d64b5c" class="colord6694b svgShape"></rect><polygon fill="#935058" points="359.282 283.803 375.758 283.803 359.282 302.578 359.282 283.803" class="color935b50 svgShape"></polygon><polygon fill="#935058" points="498.144 283.803 481.669 283.803 498.144 302.578 498.144 283.803" class="color935b50 svgShape"></polygon><path fill="#221d1e" d="M435.68179,171.42852c-.66885.06054-1.29333.05175-1.91058.084-.61383.02222-1.2124.062-1.79257.11377a17.019,17.019,0,0,0-1.6897.23828c-.26944.06152-.53894.11548-.792.19434a5.822,5.822,0,0,0-.658.23071l-.09146.04517a.91429.91429,0,0,1-.89838-.053,2.88473,2.88473,0,0,0-.46854-.20533,5.54664,5.54664,0,0,0-.6069-.188,10.94917,10.94917,0,0,0-1.32883-.25269c-.46218-.06421-.94094-.10083-1.43515-.13037-.49557-.03027-1.00131-.03662-1.53872-.0769a6.28308,6.28308,0,0,1,1.37744-.8,7.20644,7.20644,0,0,1,1.5499-.46,6.6751,6.6751,0,0,1,1.66708-.07569,4.87378,4.87378,0,0,1,1.78729.48218l-.9895-.00806a4.95293,4.95293,0,0,1,1.09012-.42627,6.685,6.685,0,0,1,1.03561-.20044,8.08358,8.08358,0,0,1,2.04056.02759,8.535,8.535,0,0,1,1.925.50879A7.35212,7.35212,0,0,1,435.68179,171.42852Z" class="color1e1d22 svgShape"></path><polygon fill="#e6a2aa" points="518.401 478.831 556.274 478.831 561.257 420.653 513.418 420.653 518.401 478.831" class="colora2aee6 svgShape"></polygon><path fill="#d04f5e" d="M556.27393,478.83064c-2.94033-9.76648-5.99534-19.49565-9.06774-29.21915-1.51519-4.8686-3.10483-9.71292-4.6595-14.56869L537.86,420.483a.54885.54885,0,0,0-1.04488,0l-4.68769,14.55949c-1.55319,4.85621-3.14592,9.6996-4.66043,14.56841l-4.58813,14.59188-4.47774,14.62786,4.99048-14.461,4.88-14.49692c1.6416-4.82745,3.205-9.68034,4.8078-14.5204l4.78054-14.52931h-1.04475l4.78142,14.529c1.60146,4.8405,3.16787,9.69244,4.80874,14.52012C549.645,459.54121,552.90216,469.20458,556.27393,478.83064Z" class="color4f66d0 svgShape"></path><path fill="#d04f5e" d="M561.25717,420.65293c-4.19637,9.61-8.28129,19.26585-12.34929,28.92866l-6.05248,14.51456-6.026,14.52549h1.01615l-6.02509-14.52586c-2.01739-4.8382-3.99643-9.6922-6.05155-14.51493l-6.12184-14.486-6.22932-14.44187,5.73055,14.64694,5.838,14.60275c1.93145,4.87354,3.939,9.7158,5.90821,14.57387l5.93479,14.563a.5487.5487,0,0,0,1.01627,0l5.93392-14.56332,5.90733-14.57424C553.59208,440.17216,557.48042,430.43547,561.25717,420.65293Z" class="color4f66d0 svgShape"></path><path fill="#d04f5e" d="M558.76558,452.73174c-3.57137-.22685-7.14268-.33313-10.71405-.42113-3.57131-.10056-7.14268-.11472-10.71406-.12854-3.57131.01234-7.14268.02693-10.714.12661l-5.357.15345c-1.78569.09137-3.57138.1449-5.35706.26961,1.78568.12473,3.57137.17825,5.35706.26963l5.357.15344c3.57131.09969,7.14268.11427,10.714.12661,3.57138-.01383,7.14275-.028,10.71406-.12854C551.6229,453.06488,555.19421,452.9586,558.76558,452.73174Z" class="color4f66d0 svgShape"></path><rect width="52.002" height="5.258" x="511.336" y="415.395" fill="#d04f5e" rx="1.42" transform="rotate(-180 537.337 418.024)" class="color4f66d0 svgShape"></rect><rect width="79.74" height="152.28" x="524.868" y="101.171" fill="#e6a2aa" rx="2" class="colora2aee6 svgShape"></rect><rect width="34.2" height="45.72" x="528.648" y="104.951" fill="#e5e1e1" rx="2" class="colore5e1e5 svgShape"></rect><rect width="34.2" height="45.72" x="566.628" y="104.951" fill="#e5e1e1" rx="2" class="colore5e1e5 svgShape"></rect><rect width="34.2" height="45.72" x="528.648" y="154.451" fill="#e5e1e1" rx="2" class="colore5e1e5 svgShape"></rect><rect width="34.2" height="45.72" x="566.628" y="154.451" fill="#e5e1e1" rx="2" class="colore5e1e5 svgShape"></rect><rect width="34.2" height="45.72" x="528.648" y="203.951" fill="#e5e1e1" rx="2" class="colore5e1e5 svgShape"></rect><rect width="34.2" height="45.72" x="566.628" y="203.951" fill="#e5e1e1" rx="2" class="colore5e1e5 svgShape"></rect><path fill="#e6a2aa" d="M532.3375 141.251c1.69141-2.75879 3.47241-5.45434 5.26709-8.1405 1.78516-2.69263 3.63477-5.34 5.48438-7.98731 1.86914-2.63354 3.74-5.26587 5.67407-7.85363l2.904-3.87964c.998-1.27222 1.96778-2.56421 2.99048-3.81885-.8374 1.38525-1.72754 2.73328-2.5896 4.1012l-2.676 4.04028c-1.78589 2.69226-3.635 5.33984-5.48584 7.98633-1.87037 2.63269-3.741 5.26538-5.67554 7.85266C536.305 136.14543 534.36607 138.72978 532.3375 141.251zM536.87315 147.57609c1.6914-2.75878 3.47241-5.45446 5.26684-8.1405 1.7854-2.69263 3.63477-5.34009 5.48462-7.9873 1.86914-2.63355 3.74-5.26587 5.67407-7.85376l2.90406-3.87964c.9978-1.2721 1.96753-2.56409 2.99023-3.81885-.83716 1.38538-1.72754 2.7334-2.5896 4.1012l-2.67578 4.0404c-1.78613 2.69214-3.63525 5.33985-5.48608 7.98621-1.87012 2.63281-3.74073 5.26538-5.67554 7.85278C540.84068 142.4705 538.90171 145.05485 536.87315 147.57609zM570.29966 141.251c1.69141-2.75879 3.47241-5.45434 5.26709-8.1405 1.7854-2.69263 3.63477-5.34 5.48462-7.98731 1.86914-2.63354 3.74-5.26587 5.67407-7.85363l2.904-3.87964c.99781-1.27222 1.96753-2.56421 2.99024-3.81885-.8374 1.38525-1.72754 2.73328-2.5896 4.1012l-2.676 4.04028c-1.78589 2.69226-3.635 5.33984-5.48584 7.98633-1.87036 2.63269-3.74072 5.26538-5.67553 7.85266C574.26743 136.14543 572.32847 138.72978 570.29966 141.251zM574.8353 147.57609c1.69141-2.75878 3.47242-5.45446 5.26709-8.1405 1.78516-2.69263 3.63477-5.34009 5.48438-7.9873 1.86914-2.63355 3.74-5.26587 5.67407-7.85376l2.904-3.87964c.99805-1.2721 1.96778-2.56409 2.99048-3.81885-.8374 1.38538-1.72754 2.7334-2.5896 4.1012l-2.676 4.0404c-1.78589 2.69214-3.635 5.33985-5.48584 7.98621-1.87036 2.63281-3.741 5.26538-5.67554 7.85278C578.80283 142.4705 576.86387 145.05485 574.8353 147.57609zM532.3375 188.98857c1.69141-2.75879 3.47241-5.45447 5.26709-8.1405 1.78516-2.69263 3.63477-5.34009 5.48438-7.98731 1.86914-2.63354 3.74-5.266 5.67407-7.85376l2.904-3.87964c.998-1.27209 1.96778-2.56408 2.99048-3.81884-.8374 1.38537-1.72754 2.73339-2.5896 4.10119l-2.676 4.04041c-1.78589 2.69214-3.635 5.33972-5.48584 7.9862-1.87037 2.63282-3.741 5.26538-5.67554 7.85267C536.305 183.883 534.36607 186.46733 532.3375 188.98857zM536.87315 195.31352c1.6914-2.75867 3.47241-5.45434 5.26684-8.1405 1.7854-2.69263 3.63477-5.34 5.48462-7.98718 1.86914-2.63355 3.74-5.266 5.67407-7.85376l2.90406-3.87964c.9978-1.27222 1.96753-2.56421 2.99023-3.81885-.83716 1.38525-1.72754 2.73328-2.5896 4.1012l-2.67578 4.04028c-1.78613 2.69226-3.63525 5.33984-5.48608 7.98633-1.87012 2.63269-3.74073 5.26538-5.67554 7.85266C540.84068 190.208 538.90171 192.7924 536.87315 195.31352zM570.29966 188.98857c1.69141-2.75879 3.47241-5.45447 5.26709-8.1405 1.7854-2.69263 3.63477-5.34009 5.48462-7.98731 1.86914-2.63354 3.74-5.266 5.67407-7.85376l2.904-3.87964c.99781-1.27209 1.96753-2.56408 2.99024-3.81884-.8374 1.38537-1.72754 2.73339-2.5896 4.10119l-2.676 4.04041c-1.78589 2.69214-3.635 5.33972-5.48584 7.9862-1.87036 2.63282-3.74072 5.26538-5.67553 7.85267C574.26743 183.883 572.32847 186.46733 570.29966 188.98857zM574.8353 195.31352c1.69141-2.75867 3.47242-5.45434 5.26709-8.1405 1.78516-2.69263 3.63477-5.34 5.48438-7.98718 1.86914-2.63355 3.74-5.266 5.67407-7.85376l2.904-3.87964c.99805-1.27222 1.96778-2.56421 2.99048-3.81885-.8374 1.38525-1.72754 2.73328-2.5896 4.1012l-2.676 4.04028c-1.78589 2.69226-3.635 5.33984-5.48584 7.98633-1.87036 2.63269-3.741 5.26538-5.67554 7.85266C578.80283 190.208 576.86387 192.7924 574.8353 195.31352zM532.3375 238.42815c1.69141-2.75879 3.47241-5.45435 5.26709-8.14051 1.78516-2.69262 3.63477-5.34 5.48438-7.9873 1.86914-2.63355 3.74-5.26587 5.67407-7.85364l2.904-3.87964c.998-1.27222 1.96778-2.56421 2.99048-3.81885-.8374 1.38526-1.72754 2.73328-2.5896 4.1012l-2.676 4.04028c-1.78589 2.69226-3.635 5.33985-5.48584 7.98633-1.87037 2.63269-3.741 5.26538-5.67554 7.85266C536.305 233.32268 534.36607 235.907 532.3375 238.42815zM536.87315 244.75322c1.6914-2.75879 3.47241-5.45447 5.26684-8.1405 1.7854-2.69263 3.63477-5.34009 5.48462-7.98731 1.86914-2.63354 3.74-5.26587 5.67407-7.85364l2.90406-3.87976c.9978-1.27209 1.96753-2.56408 2.99023-3.81872-.83716 1.38525-1.72754 2.73327-2.5896 4.10107l-2.67578 4.04041c-1.78613 2.69214-3.63525 5.33984-5.48608 7.98632-1.87012 2.6327-3.74073 5.26526-5.67554 7.85267C540.84068 239.64763 538.90171 242.232 536.87315 244.75322zM570.29966 238.42815c1.69141-2.75879 3.47241-5.45435 5.26709-8.14051 1.7854-2.69262 3.63477-5.34 5.48462-7.9873 1.86914-2.63355 3.74-5.26587 5.67407-7.85364l2.904-3.87964c.99781-1.27222 1.96753-2.56421 2.99024-3.81885-.8374 1.38526-1.72754 2.73328-2.5896 4.1012l-2.676 4.04028c-1.78589 2.69226-3.635 5.33985-5.48584 7.98633-1.87036 2.63269-3.74072 5.26538-5.67553 7.85266C574.26743 233.32268 572.32847 235.907 570.29966 238.42815zM574.8353 244.75322c1.69141-2.75879 3.47242-5.45447 5.26709-8.1405 1.78516-2.69263 3.63477-5.34009 5.48438-7.98731 1.86914-2.63354 3.74-5.26587 5.67407-7.85364l2.904-3.87976c.99805-1.27209 1.96778-2.56408 2.99048-3.81872-.8374 1.38525-1.72754 2.73327-2.5896 4.10107l-2.676 4.04041c-1.78589 2.69214-3.635 5.33984-5.48584 7.98632-1.87036 2.6327-3.741 5.26526-5.67554 7.85267C578.80283 239.64763 576.86387 242.232 574.8353 244.75322z" class="colora2aee6 svgShape"></path><rect width="214.408" height="157.54" x="114.79" y="85.799" fill="#e6a2aa" class="colora2aee6 svgShape"></rect><rect width="232.838" height="15.56" x="105.575" y="70.239" fill="#d04f5e" rx="3" class="color4f66d0 svgShape"></rect><rect width="232.838" height="15.56" x="105.575" y="241.468" fill="#d04f5e" rx="3" class="color4f66d0 svgShape"></rect><path fill="#d04f5e" d="M309.88135 158.41289h-45.043V113.369h45.043zm-43.043-2h41.043V115.369h-41.043zM178.12158 226.615H133.07813V181.57109h45.04345zm-43.04345-2h41.04345V183.57109H135.07813z" class="color4f66d0 svgShape"></path><rect width="121.68" height="2" x="130.478" y="114.017" fill="#d04f5e" class="color4f66d0 svgShape"></rect><rect width="121.68" height="2" x="130.478" y="134.784" fill="#d04f5e" class="color4f66d0 svgShape"></rect><rect width="121.68" height="2" x="130.478" y="157.383" fill="#d04f5e" class="color4f66d0 svgShape"></rect><rect width="121.68" height="2" x="191.318" y="181.442" fill="#d04f5e" class="color4f66d0 svgShape"></rect><rect width="121.68" height="2" x="191.318" y="202.208" fill="#d04f5e" class="color4f66d0 svgShape"></rect><rect width="121.68" height="2" x="191.318" y="224.806" fill="#d04f5e" class="color4f66d0 svgShape"></rect><rect width="56.88" height="4" x="187.358" y="93.8" fill="#f73c52" class="colorf73c4f svgShape"></rect><rect width="500" height="2" x="100" y="478.382" fill="#935058" class="color935b50 svgShape"></rect><rect width="8.426" height="133.651" x="116.131" y="346.109" fill="#935058" transform="rotate(-180 120.344 412.935)" class="color935b50 svgShape"></rect><rect width="253.204" height="6.462" x="100" y="339.647" fill="#935058" rx="1.453" transform="rotate(-180 226.602 342.878)" class="color935b50 svgShape"></rect><rect width="8.426" height="133.651" x="327.975" y="346.109" fill="#935058" transform="rotate(-180 332.187 412.935)" class="color935b50 svgShape"></rect><path fill="#c3868d" d="M112.41111,346.10914H340.21646a2.90517,2.90517,0,0,1,2.90517,2.90517v16.74563a0,0,0,0,1,0,0H109.50594a0,0,0,0,1,0,0V349.01432a2.90517,2.90517,0,0,1,2.90517-2.90517Z" transform="rotate(-180 226.314 355.935)" class="colorc38f86 svgShape"></path><polygon fill="#e17481" points="117.805 339.661 132.527 339.661 137.487 313.591 112.845 313.591 117.805 339.661" class="colore19974 svgShape"></polygon><polygon fill="#d64b5c" points="113.411 316.567 112.845 313.591 137.487 313.591 136.921 316.567 113.411 316.567" class="colord6694b svgShape"></polygon><rect width="4.398" height="4.398" x="129.151" y="327.302" fill="#d64b5c" transform="rotate(135 131.35 329.501)" class="colord6694b svgShape"></rect><rect width="4.398" height="4.398" x="122.931" y="327.302" fill="#d64b5c" transform="rotate(135 125.13 329.501)" class="colord6694b svgShape"></rect><rect width="4.398" height="4.398" x="116.783" y="327.302" fill="#d64b5c" transform="rotate(135 118.982 329.501)" class="colord6694b svgShape"></rect><path fill="#80313a" d="M119.43151,291.65062s-1.29273,18.26317,6.28408,22.13363C125.71559,313.78425,128.33867,306.86006,119.43151,291.65062Z" class="color558031 svgShape"></path><path fill="#9f4c56" d="M143.88046,299.49568s-12.39531,2.1387-18.16487,14.28857C125.71559,313.78425,139.34621,309.15473,143.88046,299.49568Z" class="color849f4c svgShape"></path><path fill="#b8626c" d="M139.48541,323.418s-6.30386-9.43083-13.76982-9.63374C125.71559,313.78425,126.83956,321.37781,139.48541,323.418Z" class="colora6b862 svgShape"></path><path fill="#9f4c56" d="M131.70949,294.25383s-8.74664,7.986-5.9939,19.53042C125.71559,313.78425,130.56091,308.64827,131.70949,294.25383Z" class="color849f4c svgShape"></path><path fill="#b8626c" d="M125.71559,313.78425s-3.073-11.249-18.60782-14.13359C107.10777,299.65066,110.60379,309.89309,125.71559,313.78425Z" class="colora6b862 svgShape"></path><path fill="#9f4c56" d="M102.99257,310.84367s11.85262-4.88634,22.723,2.94058C125.71559,313.78425,111.26455,315.51923,102.99257,310.84367Z" class="color849f4c svgShape"></path><path fill="#80313a" d="M103.1004 322.2196s5.72306-9.167 22.61519-8.43535zM150.26487 312.30042s-15.56618-5.77188-24.753 1.20785C125.5119 313.50827 134.235 318.313 150.26487 312.30042z" class="color558031 svgShape"></path><path fill="#80313a" d="M137.50022,295.58742s-13.88977,9.82382-11.89726,18.20481C125.603,313.79223,135.23924,306.066,137.50022,295.58742Z" class="color558031 svgShape"></path><path fill="#9f4c56" d="M113.135,323.56229s11.45053-1.95486,12.58055-9.778C125.71559,313.78425,117.349,314.19864,113.135,323.56229Z" class="color849f4c svgShape"></path><rect width="61.814" height="17.302" x="257.046" y="322.277" fill="#9e9798" rx="2.465" class="color9e9797 svgShape"></rect><rect width="49.688" height="9.908" x="263.109" y="325.974" fill="#ffffff" rx="1.672" class="colorfff svgShape"></rect><path fill="#baafb0" d="M269.89536,315.32628H306.0112a5.75093,5.75093,0,0,1,5.75093,5.75093v1.19948a0,0,0,0,1,0,0h-47.6177a0,0,0,0,1,0,0v-1.19948A5.75093,5.75093,0,0,1,269.89536,315.32628Z" class="colorbaafb9 svgShape"></path><rect width="6.507" height="3" x="269.172" y="329.428" fill="#baafb0" class="colorbaafb9 svgShape"></rect><rect width="4.962" height="2" x="278.555" y="329.928" fill="#baafb0" class="colorbaafb9 svgShape"></rect><path fill="#e5e1e1" d="M243.14379,339.42946l-62.92662.15137,15.42675-47.15558,61.95807-.149a2.12072,2.12072,0,0,1,2.0207,2.78011L245.7355,337.50588A2.75028,2.75028,0,0,1,243.14379,339.42946Z" class="colore5e1e5 svgShape"></path><path fill="#9e9798" d="M195.94357,292.4246a2.3171,2.3171,0,0,0-2.13266,1.64408L180.404,334.64408l-40.20807.09671a2.57334,2.57334,0,0,0-2.48858,1.74946,2.47256,2.47256,0,0,0,2.38616,3.18708l41.29694-.09934a2.12071,2.12071,0,0,0,2.00174-1.43513l14.62619-42.81349A2.1952,2.1952,0,0,0,195.94357,292.4246Z" class="color9e9797 svgShape"></path><path fill="#baafb0" d="M145.48559 337.88037l-3.154.00759a.68425.68425 0 11-.00329-1.3685l3.154-.00759a.68425.68425 0 01.0033 1.3685zM159.17056 337.84745l-3.154.00759a.68425.68425 0 01-.00329-1.3685l3.154-.00758a.68425.68425 0 01.00329 1.36849z" class="colorbaafb9 svgShape"></path><ellipse cx="220.378" cy="316.637" fill="#9e9798" rx="7.308" ry="1.806" transform="rotate(-.138 220.38 316.643)" class="color9e9797 svgShape"></ellipse><path fill="#baafb0" d="M209.64844,356.57207c-35.78321,0-52.26123-18.19727-52.43164-18.38965a.50022.50022,0,0,1,.75-.66211c.17578.19922,18.0332,19.876,57.08838,17.915,39.89941-2.001,55.49121-20.00293,56.90771-23.46484a.50016.50016,0,0,1,.92578.3789c-1.75683,4.292-17.56054,22.06836-57.78369,24.084C213.24072,356.52715,211.418,356.57207,209.64844,356.57207Z" class="colorbaafb9 svgShape"></path></svg></g></svg>